<svg viewBox="0 0 512 441.5">
    <path d="M0 89.6h499.2v307.2H8a8 8 0 0 1-8-8z" fill="#beddf5"/>
    <path d="M249.6 89.6h249.6v307.2H249.6z" fill="#93c7ef"/>
    <path d="M8 0h483.2a8 8 0 0 1 8 8v94.4H0V8a8 8 0 0 1 8-8" fill="#0052b4"/>
    <circle cx="76.8" cy="51.2" r="19.2" fill="#ff5023"/>
    <circle cx="140.8" cy="51.2" r="19.2" fill="#ffda44"/>
    <circle cx="204.8" cy="51.2" r="19.2" fill="#91dc5a"/>
    <path d="M96 198.4h128v38.4H96zm0 76.8h128v38.4H96zm179.2-76.8h128v38.4h-128zm0 76.8h153.6v38.4H275.2z" fill="#fff"/>
    <path d="M249.6 0h241.6a8 8 0 0 1 8 8v94.4H249.6z" fill="#003778"/>
    <path d="M94.7 275.2h128v38.4h-128z" fill="#fff"/>
    <path d="m502.5 385.8-105-105a32.7 32.7 0 1 0-46.3 46.3l105 104.8a33 33 0 0 0 23.1 9.6c18 .1 32.6-14.3 32.7-32.3v-.4c0-8.7-3.4-17-9.6-23.1" fill="#006df0"/>
    <circle cx="371.2" cy="300.6" r="89.6" fill="#fff"/>
    <path d="M371.2 409.4a109 109 0 0 1 0-217.6 109 109 0 0 1 0 217.6m0-179.2a70.5 70.5 0 1 0 .2 141 70.5 70.5 0 0 0-.2-141" fill="#003778"/>
</svg>
