<svg viewBox="0 0 24 24">
    <path 
        fill="currentColor"
        d="M12 0a12 12 0 1 1 0 24 12 12 0 1 1 0-24M9.08 10.8l2.53 1.95.04.02h.02c.22.13.51.07.7-.15l.02-.02 3.1-3.67c.18-.2.18-.48 0-.64s-.45-.12-.63.08l-2.9 3.11-2.24-1.56c-.21-.16-.52-.08-.7.16s-.15.56.06.71ZM5.92 12l.02-.4H4.35q-.03.4 0 .8h1.59zm2.81-5.12.46-.27.06-.03-.79-1.38q-.3.15-.58.33l.79 1.37.06-.04ZM5.2 8.46l1.38.79.33-.58-1.37-.79q-.18.28-.33.58Zm12.19 6.34q-.12.24-.27.46l-.04.06 1.38.79.33-.57-1.37-.8zm-10.78 0-.03-.06-1.37.79q.15.3.33.58l1.38-.79-.04-.06zm2.12 2.32-.06-.04-.79 1.38q.28.18.58.33l.79-1.38-.06-.03-.46-.27Zm6.01-10.54.58.34.79-1.38-.57-.33zM11.6 18.06v1.59q.4.03.8 0v-1.61h-.8zm.8-12.12V4.35a5 5 0 0 0-.8 0v1.61h.8zm2.34 11.48.8 1.37q.3-.15.57-.33l-.79-1.38zm4.06-8.96q-.15-.3-.34-.58l-1.38.8.34.58zm.85 3.14h-1.61v.8h1.61q.03-.4 0-.8M12 2a10 10 0 1 0 0 20 10 10 0 0 0 0-20m0 18.71a8.7 8.7 0 0 1-.03-17.42H12a8.7 8.7 0 1 1 0 17.42"
    />
</svg>
