<svg viewBox="0 0 24 24">
    <g fill="none">
        <path d="m12.593 23.258-.011.002-.071.035-.02.004-.014-.004-.071-.035q-.016-.005-.024.005l-.004.01-.017.428.005.02.01.013.104.074.015.004.012-.004.104-.074.012-.016.004-.017-.017-.427q-.004-.016-.017-.018m.265-.113-.013.002-.185.093-.01.01-.003.011.018.43.005.012.008.007.201.093q.019.005.029-.008l.004-.014-.034-.614q-.005-.018-.02-.022m-.715.002a.02.02 0 0 0-.027.006l-.006.014-.034.614q.001.018.017.024l.015-.002.201-.093.01-.008.004-.011.017-.43-.003-.012-.01-.01z"/>
        <path fill="currentColor" d="M12 2c5.523 0 10 4.477 10 10s-4.477 10-10 10S2 17.523 2 12 6.477 2 12 2m0 2a8 8 0 1 0 0 16 8 8 0 0 0 0-16M9.879 8.464 12 10.586l2.121-2.122a1 1 0 1 1 1.415 1.415l-2.122 2.12 2.122 2.122a1 1 0 0 1-1.415 1.415L12 13.414l-2.121 2.122a1 1 0 0 1-1.415-1.415L10.586 12 8.465 9.879a1 1 0 0 1 1.414-1.415"/>
    </g>
</svg>
