<svg viewBox="0 0 24 21.48">
    <path
        d="M19.88,8.92l-.27-.02c-.81-.08-1.44-.72-1.51-1.53l-.02-.28c-.05-.58-.38-1.07-.89-1.32-.22-.11-.46-.17-.7-.17-.31,0-.6.09-.87.25l-.34.21c-.89.55-2.06.16-2.44-.82l-.14-.38c-.51-1.32-1.79-2.21-3.2-2.21-.36,0-.72.06-1.07.17-1.6.53-2.57,2.11-2.32,3.77l.06.37c.15.98-.58,1.87-1.57,1.92l-.37.02c-.87.04-1.54.74-1.54,1.6s.72,1.61,1.61,1.61h0s15.42,0,15.42,0c.89,0,1.62-.7,1.64-1.58,0-.85-.62-1.56-1.46-1.63h0Z"
        fill="currentColor"
    />
    <path 
        d="M12,18.33c-.5,0-.9.41-.9.91s.41.91.9.91.91-.41.91-.91-.41-.91-.91-.91Z" 
        fill=none />
    <path
        d="M23.34,18.57h-9.2c-.22-.7-.77-1.25-1.47-1.47v-2.3h7.05c2.36,0,4.28-1.92,4.28-4.28,0-2.04-1.41-3.75-3.36-4.18-.26-1.29-1.09-2.37-2.3-2.96-1.11-.54-2.36-.58-3.48-.13C13.5.65,10.43-.64,7.57.31c-2.62.87-4.3,3.34-4.18,6.03C1.44,6.75,0,8.47,0,10.52,0,12.88,1.92,14.8,4.28,14.8h7.05v2.3c-.7.22-1.25.77-1.47,1.47H.67c-.37,0-.67.3-.67.67s.3.67.67.67h9.19c.28.91,1.13,1.57,2.14,1.57s1.86-.66,2.14-1.57h9.19c.37,0,.67-.3.67-.67,0-.38-.29-.67-.66-.67h0ZM4.28,13.47c-1.62,0-2.95-1.32-2.95-2.95s1.24-2.87,2.81-2.94c.28-.02.53-.2.61-.48h1.19c.37,0,.67-.3.67-.67s-.3-.67-.67-.67h-1.21c.03-.41.11-.81.23-1.19h2.92c.37,0,.67-.3.67-.67s-.3-.67-.67-.67h-2.23c.57-.76,1.36-1.36,2.33-1.67,2.41-.77,4.96.39,5.94,2.83.13.34.55.57.97.32.87-.54,1.94-.6,2.86-.15.94.46,1.55,1.36,1.63,2.4.03.32.28.58.6.61,1.52.14,2.67,1.4,2.67,2.93,0,1.62-1.32,2.95-2.95,2.95H4.28s0,0,0,0ZM12,20.14c-.5,0-.9-.41-.9-.91s.41-.91.9-.91.91.41.91.91-.41.91-.91.91Z"
        fill="currentColor"
    />
</svg>
