<svg viewBox="0 0 512 512">
    <path d="M197.8 381.1h116.4V416H197.8zm174.5-13.9L256 165.8 139.7 367.2l-30.2-17.4L256 96l146.5 253.8z" fill="#ff5023"/>
    <path d="M372.4 170.1a51.5 51.5 0 0 0-35.6-48.5l-7.6-2.4-.3-7.8a67.2 67.2 0 0 0-133.2-9.7l-1.5 7.7-7.8 1.2a55.6 55.6 0 0 0 8.8 110.4h126.3a51 51 0 0 0 50.9-50.9" fill="#aed5f3"/>
    <path d="m336.8 121.6-7.6-2.4-.3-7.8a67 67 0 0 0-73.6-63.7V221h66.2a51 51 0 0 0 15.3-99.4" fill="#93c7ef"/>
    <path d="M232.7 411.2c0-22-14.6-41.9-35.6-48.5l-7.5-2.4-.4-7.9a67.2 67.2 0 0 0-133.1-9.7l-1.6 7.7-7.7 1.3a55.6 55.6 0 0 0 8.8 110.4h126.2a51 51 0 0 0 51-50.9" fill="#aed5f3"/>
    <path d="m197.1 362.7-7.5-2.4-.4-7.9a67 67 0 0 0-73.5-63.6V462h66.1a51 51 0 0 0 15.3-99.4" fill="#93c7ef"/>
    <path d="M512 413.7c0-22-14.6-41.9-35.6-48.5l-7.5-2.4-.4-7.9a67.2 67.2 0 0 0-133.2-9.7l-1.5 7.7-7.8 1.3a55.6 55.6 0 0 0 8.8 110.4h126.3a51 51 0 0 0 50.9-50.9" fill="#aed5f3"/>
    <path d="m476.4 365.2-7.5-2.4-.4-7.9a67 67 0 0 0-73.5-63.6v173.3h66a51 51 0 0 0 15.3-99.4" fill="#93c7ef"/>
</svg>
