<svg data-name="Layer 1" xmlns="http://www.w3.org/2000/svg" viewBox="0 0 300 91.1" fill="currentColor">
    <path d="M0 26.3C0 10.6 12 0 27.2 0c12.6 0 19.2 7 22.6 13.7L38.5 19c-1.7-4-6-7.4-11.3-7.4-8 0-13.9 6.4-13.9 14.7s6 14.8 13.9 14.8c5.2 0 9.6-3.4 11.3-7.4L49.8 39a24 24 0 0 1-22.6 13.7C11.9 52.7 0 42 0 26.3M82 0c15.6 0 27.2 10.8 27.2 26.3S97.6 52.7 82 52.7 54.7 41.8 54.7 26.3 66.4 0 82 0m0 11.6c-8.5 0-14 6.4-14 14.7s5.5 14.8 14 14.8 13.8-6.5 13.8-14.8S90.4 11.6 82 11.6m35.7 40.2V.8h28.9c10 0 14.8 6.6 14.8 13s-3.9 10.6-8.7 11.7c5.5.8 9.7 6 9.7 12.4 0 7.4-5 13.9-15 13.9zm13.1-31.3h12.8c2.7 0 4.5-1.9 4.5-4.4s-1.8-4.3-4.5-4.3h-12.8zm0 20.3H144c3.2 0 5-1.9 5-4.6s-1.7-4.8-5-4.8h-13.2zm75.9 11-2.6-7.8H183l-2.6 7.7H166L185.3.9h16.5l19.2 51zm-13.2-39.5-7 20.7h14.2zm33.1 39.5V.8h13.2v39.5h20.4v11.5zm46.1 0V12.3h-14.3V.8H300v11.5h-14.2v39.5zM22 83.6l-4.4-17.5L13 83.6H7.3L0 58.1h6l4.6 18.4 4.8-18.4h4.3l4.8 18.4L29 58.1h6l-7.3 25.5zm21.5-18.9c5.5 0 9.2 4 9.2 10.1V76H39c.3 2.3 2.1 4.3 5.3 4.3a8 8 0 0 0 5-1.8l2 3.1a11 11 0 0 1-7.6 2.6 9.3 9.3 0 0 1-9.8-9.8c0-5.3 4-9.7 9.5-9.7Zm-4.6 8H48a4.3 4.3 0 0 0-4.6-4.2c-3 0-4.3 2.3-4.5 4.1m16.4 11V58.1h4.9v9.4a7 7 0 0 1 5.7-2.8c4.7 0 8.2 3.6 8.2 9.7S70.5 84 65.9 84q-3.5 0-5.7-2.8v2.3zm4.9-6c.7 1.3 2.6 2.2 4.1 2.2 2.9 0 4.7-2.2 4.7-5.4S67.2 69 64.3 69c-1.5 0-3.3 1-4.1 2.1zm31.5 6V63h-7.5v-5h20.4v4.8H97v20.7zm19.9-18.9c5.5 0 9.3 4 9.3 10.1V76H107c.3 2.3 2.2 4.3 5.3 4.3 1.8 0 3.8-.7 5-1.8l2.1 3.1a11 11 0 0 1-7.6 2.6c-5.6 0-9.9-3.8-9.9-9.8 0-5.3 4-9.7 9.6-9.7Zm-4.5 8h9a4.3 4.3 0 0 0-4.5-4.2c-3 0-4.3 2.3-4.5 4.1m24.9-7.9c3.9 0 6.2 1.6 7.4 3.3l-3.2 3q-1.3-2-3.9-2c-3 0-5 2.1-5 5.3s2 5.4 5 5.4q2.5 0 4-2l3 3c-1.1 1.7-3.4 3.4-7.2 3.4-5.7 0-9.8-4-9.8-9.8s4-9.7 9.8-9.7m22 19V72.4c0-2.6-1.3-3.4-3.4-3.4a5 5 0 0 0-4.2 2.2v12.4h-4.9V58.1h4.9v9.4a9 9 0 0 1 6.5-2.8q6 .2 6 5.8v13.1zm21.3 0V72.4q-.2-3.6-3.4-3.4c-3.2.2-3.4 1-4.3 2.2v12.4H163V65.1h4.8v2.4a9 9 0 0 1 6.5-2.9c4 0 6 2.3 6 6v13zm7.6-9.3c0-5.2 3.6-9.7 9.7-9.7s9.8 4.5 9.8 9.7-3.7 9.8-9.8 9.8-9.8-4.5-9.8-9.8m14.4 0c0-2.8-1.7-5.3-4.7-5.3s-4.7 2.5-4.7 5.3 1.7 5.4 4.7 5.4 4.7-2.4 4.7-5.4m7.8 9.3V58.1h4.9v25.5zm7.6-9.3c0-5.2 3.7-9.7 9.8-9.7s9.8 4.5 9.8 9.7-3.7 9.8-9.8 9.8-9.8-4.5-9.8-9.8m14.5 0c0-2.8-1.7-5.3-4.7-5.3s-4.8 2.5-4.8 5.3 1.7 5.4 4.7 5.4 4.8-2.4 4.8-5.4m9.5 10.5q2.3 2.4 5.8 2.3c3.5 0 5-1 5-4.6v-2a7 7 0 0 1-5.6 3c-4.7 0-8.2-3.3-8.2-9.4s3.5-9.5 8.2-9.5q3.4 0 5.7 2.9V65h4.9v17.2c0 7-5.5 8.8-10 8.8q-4.7.2-8-2.8zm10.9-13.7a5 5 0 0 0-4.2-2.1c-2.8 0-4.7 1.9-4.7 5s2 5.2 4.7 5.2c1.6 0 3.4-1 4.2-2.1zm8.3-11.6a3 3 0 0 1 2.9-3 3 3 0 1 1-3 3m.5 24.1V65.1h4.8v18.5zm17.2-18.9c5.5 0 9.3 4 9.3 10.1V76H269c.3 2.3 2.2 4.3 5.3 4.3a8 8 0 0 0 5-1.8l2.1 3.1a11 11 0 0 1-7.6 2.6c-5.6 0-9.9-3.8-9.9-9.8 0-5.3 4-9.7 9.6-9.7m-4.6 8h9.2a4.3 4.3 0 0 0-4.6-4.2c-3 0-4.3 2.3-4.6 4.1m16.9 5.2c1.4 1.3 4.1 2.5 6.4 2.5q3.1 0 3.1-1.9c0-1.3-1.6-1.7-3.7-2.1-3.2-.6-7.3-1.4-7.3-5.8 0-3.1 2.7-5.9 7.6-5.9q4.7.2 7.4 2.6l-1.9 3.3a8 8 0 0 0-5.5-2.1q-2.7 0-2.9 1.7c0 1.1 1.5 1.6 3.5 2 3.2.6 7.5 1.4 7.5 6 0 3.4-2.9 6-8 6-3.3 0-6.4-1.1-8.3-3z"/>
</svg>
