<svg xmlns="http://www.w3.org/2000/svg" viewBox="0 0 228 219.8">
    <g>
        <circle cx="56" cy="55.9" r="50" fill="#5cb0ff"/>
        <path d="M112 56A56 56 0 1 0 0 56a56 56 0 0 0 112 0m-82.5 0H52v47.4c-12.6-3.5-22.6-23-22.6-45.9V56zm53.1 1.5c0 22.8-10 42.4-22.6 45.9V56h22.5zM60 48V11.7c10.8 3 19.7 17.8 22 36.3zm-8-36.3V48H30c2.3-18.5 11.2-33.3 22-36.3m27.4 86.2a71 71 0 0 0 11.2-40.3v-1.5h13.5A48 48 0 0 1 79.5 98zM103.3 48H90.1a61 61 0 0 0-14.7-35.9 48 48 0 0 1 28 35.9zM36.7 12.1A61 61 0 0 0 22 48H8.8a48 48 0 0 1 28-35.9zM8 56h13.5v1.5c0 16.2 4.3 30.4 11.2 40.3A48 48 0 0 1 8.1 55.9z" fill="#1c71da"/>
    </g>
    <g>
        <path d="m227.7 210.5-7.7-19.3V144a4 4 0 0 0-4-4h-88a4 4 0 0 0-4 4v47.2l-7.7 19.3a4 4 0 0 0 3.7 5.5h104a4 4 0 0 0 3.7-5.5" fill="#1c71da"/>
        <path d="M132 148h80v40h-80zm-1.3 48-4.8 12h92.2l-4.8-12z" fill="#d0e8ff"/>
    </g>
    <path d="M102.8 165.9c-1.6-1.6-4.1-1.6-5.7 0s-1.6 4.1 0 5.7l4.5 4.5H59.9v-33.7l4.5 4.5a4 4 0 0 0 2.8 1.2c1.5 0 2-.4 2.8-1.2a4 4 0 0 0 0-5.7l-10.4-10.4c-.5-1.6-2-2.8-3.8-2.8s-3.2 1.2-3.8 2.8l-10.4 10.4c-1.6 1.6-1.6 4.1 0 5.7s4.1 1.6 5.7 0l4.5-4.5v37.7a4 4 0 0 0 4 4h45.7l-4.5 4.5a4 4 0 0 0 0 5.7q1.2 1.2 2.8 1.2c1.6 0 2-.4 2.8-1.2l11.3-11.3a4 4 0 0 0 0-5.7L102.6 166z" fill="#1c71da"/>
    <path d="m209 104.8 4.2-4.2a4 4 0 0 0-5.7-5.7l-4.2 4.2-4.2-4.2a4 4 0 0 0-5.7 5.7l4.2 4.2-4.2 4.2a4 4 0 0 0 0 5.7 4 4 0 0 0 2.8 1.2c1.5 0 2-.4 2.8-1.2l4.2-4.2 4.2 4.2a4 4 0 0 0 2.8 1.2c1.5 0 2-.4 2.8-1.2a4 4 0 0 0 0-5.7l-4.2-4.2z" fill="#ff5d5d"/>
    <path d="M26.3 219.8c-7.7 0-14-6.3-14-14s6.3-14 14-14 14 6.3 14 14-6.3 14-14 14m0-20c-3.3 0-6 2.7-6 6s2.7 6 6 6 6-2.7 6-6-2.7-6-6-6" fill="#00d40b"/>
    <path d="M139.6 54.4q-1.6 0-2.8-1.2l-11.3-11.3a4 4 0 0 1-1.2-2.8q0-1.5 1.2-2.8L136.8 25a4 4 0 0 1 5.7 0l11.3 11.3a4 4 0 0 1 0 5.7l-11.3 11.3a4 4 0 0 1-2.8 1.2zm-5.7-15.3 5.7 5.7 5.7-5.7-5.7-5.7z" fill="#ffc504"/>
</svg>
