<svg viewBox="0 0 300 300">
    <path
        d="M278.9 245V105.2c0-4.1-3.4-7.5-7.5-7.5H229V65.6c0-4.1-3.4-7.5-7.5-7.5h-32.3V47.6a39.2 39.2 0 0 0-78.4 0V58H78.5a7.5 7.5 0 0 0-7.5 7.5v32.1H28.6a7.5 7.5 0 0 0-7.5 7.5V245A21.5 21.5 0 0 0 0 266.4v3.7c0 11.9 9.6 21.5 21.5 21.5h257c11.9 0 21.5-9.6 21.5-21.5v-3.7c0-11.7-9.4-21.2-21.1-21.4M78.5 217h143c4.1 0 7.5-3.4 7.5-7.5v-71.2h11.4v105.1H59.6v-105H71v71c0 4.2 3.4 7.6 7.5 7.6M264 112.7v130.7h-8.5V130.8c0-4.1-3.4-7.5-7.5-7.5h-19v-10.6zM126 47.6a24.2 24.2 0 0 1 48.3 0V58h-48.4zM86 73h24.8v12.8a7.5 7.5 0 1 0 15 0V73.1h48.4v12.8a7.5 7.5 0 1 0 15 0V73.1H214V202H86zm-49.9 39.6h35v10.6H52a7.5 7.5 0 0 0-7.5 7.5v112.6H36zM285 270.1c0 3.6-3 6.5-6.5 6.5h-257a6.5 6.5 0 0 1-6.5-6.5v-3.7c0-3.5 3-6.5 6.5-6.5h257c3.6 0 6.5 3 6.5 6.5z"
        fill="currentColor"
    />
    <path 
        d="m171.9 153.6-48.7-19.5 19.5 48.8 4.7-14.8 19.6 19.7 9.8-9.8-19.6-19.6z" 
        fill="currentColor"
    />
</svg>
