<svg viewBox="0 0 512 364.1">
    <path d="M30.8 0h450.5a8 8 0 0 1 8 8v304.9H22.8V8a8 8 0 0 1 8-8" fill="#0052b4"/>
    <path d="M256.2 0v312.9h233V8a8 8 0 0 0-8-8z" fill="#003778"/>
    <path d="M0 305.5v13a45.5 45.5 0 0 0 45.5 45.6h421a45.5 45.5 0 0 0 45.5-45.5v-13a4 4 0 0 0-4-4H4a4 4 0 0 0-4 4" fill="#93c7ef"/>
    <path d="M256.3 301.5v62.6h210.2a45.5 45.5 0 0 0 45.5-45.5v-13a4 4 0 0 0-4-4z" fill="#78b9eb"/>
    <path d="m135.6 205.2-11-49-11.2 49H85.9L61.2 119h29.3l11.1 52.8 13-52.8h19.7l13.1 52.8 11-52.8h29.4l-24.7 86.3zm131.5 0-11.1-49-11.1 49h-27.5L192.7 119H222l11 52.8 13.2-52.8h19.7l13 52.8 11-52.8h29.4l-24.7 86.3zm131.5 0-11.1-49-11.1 49h-27.5L324.2 119h29.3l11 52.8 13.2-52.8h19.6l13.1 52.8 11-52.8h29.4l-24.7 86.3z" fill="#fff"/>
</svg>
