<svg viewBox="0 0 512 424">
    <path d="M66.2 0h205a8 8 0 0 1 8 8v259.6h-221V8a8 8 0 0 1 8-8" fill="#006df0"/>
    <path d="M168.7 0h102.6a8 8 0 0 1 8 8v259.6H168.7z" fill="#0052b4"/>
    <circle cx="168.7" cy="52.4" r="17.5" fill="#003778"/>
    <path d="M58.2 261.8h221v56a8 8 0 0 1-8 8h-205a8 8 0 0 1-8-8z" fill="#78b9eb"/>
    <path d="M395.6 128.5h-34.9A52.4 52.4 0 0 0 308.4 76V41a87.4 87.4 0 0 1 87.2 87.4M87.3 413.5A87.4 87.4 0 0 1 0 326.3h35a52.4 52.4 0 0 0 52.3 52.3z" fill="#ff5023"/>
    <path d="M141.5 151.7h345.3a8 8 0 0 1 8 8v231.7H133.5V159.7a8 8 0 0 1 8-8" fill="#003778"/>
    <path d="M314.2 151.7h172.6a8 8 0 0 1 8 8v231.7H314.2z" fill="#012654"/>
    <path d="M116.4 383.8v10c0 16.6 20.8 30.2 46.5 30.2h302.6c25.7 0 46.5-13.5 46.5-30.2v-10c0-2.8-3.6-5.2-8-5.2H124.4c-4.5 0-8 2.4-8 5.2" fill="#93c7ef"/>
    <path d="M314.2 378.6V424h151.3c25.7 0 46.5-13.5 46.5-30.2v-10c0-2.8-3.6-5.2-8-5.2z" fill="#78b9eb"/>
</svg>
