<svg viewBox="0 0 32 32">
    <path
        d="m23 28c-1.1 0-2.1-0.7-2.5-1.8 0-0.1 0-0.2-0.1-0.2h-8.9c0 0.1 0 0.2-0.1 0.2-0.3 1.1-1.3 1.8-2.4 1.8-0.6 0-1 0.4-1 1s0.4 1 1 1h14c0.6 0 1-0.4 1-1s-0.4-1-1-1z"
        fill="currentColor" 
    />
    <path
        d="m16.9 10.9v4.5c0.9 0.3 1.7 0.6 2.5 1l0.6 0.3v-7l-0.6 0.3c-0.8 0.3-1.6 0.6-2.5 0.9z"
        fill="currentColor" 
    />
    <path
        d="m27 3h-22c-1.7 0-3 1.3-3 3v15c0 1.7 1.3 3 3 3h22c1.7 0 3-1.3 3-3v-15c0-1.7-1.3-3-3-3zm-5 15.3c0 0.3-0.2 0.7-0.5 0.9-0.2 0.1-0.3 0.1-0.5 0.1s-0.3 0-0.5-0.1l-2-1c-0.5-0.3-1-0.5-1.6-0.7v2.5c0 0.6-0.4 1-1 1h-2.5c-0.4 0-0.7-0.2-0.9-0.6l-2.3-4.6c-0.7-0.7-1.2-1.6-1.2-2.7 0-2 1.6-3.6 3.5-3.6 2.1 0 4.1-0.5 6-1.4l2.1-1c0.3-0.2 0.7-0.1 1 0 0.2 0.2 0.4 0.6 0.4 0.9v10.3z"
        fill="currentColor" 
    />
</svg>
