<svg viewBox="0 0 32 32">
    <path 
        d="M15 10h2v2h-2zm-8.5 0a.5.5 0 1 0 0 1 .5.5 0 0 0 0-1m15 19H20v-2h-8v2h-1.5a.5.5 0 0 0 0 1h11a.5.5 0 0 0 0-1M32 7v16a3 3 0 0 1-3 3H3a3 3 0 0 1-3-3V7a3 3 0 0 1 3-3h26a3 3 0 0 1 3 3m-5 3.2a1.5 1.5 0 0 0-3-.2h-6V9h-4v1H8a1.5 1.5 0 0 0-3 .2 1.5 1.5 0 0 0 3 .8h6v.2a10 10 0 0 0-8 9.3q0 .5.5.5t.5-.5a9 9 0 0 1 7-8.3v.8h4v-.8a9 9 0 0 1 7 8.3q0 .5.5.5t.5-.5a10 10 0 0 0-8-9.3V11h6a1.5 1.5 0 0 0 3-.8m-1.5-.2a.5.5 0 1 0 0 1 .5.5 0 0 0 0-1"
        fill="currentColor"
    />
</svg>