<svg viewBox="0 0 500 327.6">
    <path
        d="M172.6 1v325.5H48.5A45.5 45.5 0 0 1 2 282.2V45.4A45.5 45.5 0 0 1 48.5 1.1z"
        fill="#00205b"
    />
    <path 
        d="M498 163.8v118.4a44.4 44.4 0 0 1-44.4 44.3h-281V163.8z" 
        fill="#bf0d3e"
    />
    <path 
        d="M498 45.4v118.4H172.6V1h281A44.4 44.4 0 0 1 498 45.4"
        fill="#ffffff"
    />
    <path 
        d="m91.2 109.2 13.6 41.6 43.8.1-35.3 25.8 13.4 41.7-35.5-25.6-35.5 25.6 13.4-41.7-35.3-25.8 43.7-.1z" fill="#fff" 
    />
</svg>
