<svg viewBox="0 0 500 327.6">
    <path
        d="M461.7.7H38.3A37.3 37.3 0 0 0 1 38v251.6A37.3 37.3 0 0 0 38.3 327h423.4a37.3 37.3 0 0 0 37.3-37.3V38A37.3 37.3 0 0 0 461.7.7"
        fill="#fff"
    />
    <path
        d="M3 25.8h494A37 37 0 0 0 461.6.7H38.3a37 37 0 0 0-35.2 25M1 101h498v25.1H1zm0-50.2h498v25.1H1zm0 117c0 4.7 3.8 8.5 8.6 8.5H499v-25H1zm0 83.8h498v25.1H1zm496 50.2H3A38 38 0 0 0 38.4 327h423.4a37 37 0 0 0 35.2-25M1 201.4h498v25.1H1z"
        fill="#b22234"
    />
    <path
        d="M9.6 176.3h214.6c4.8 0 8.6-3.8 8.6-8.5V9.2c0-4.7-3.8-8.5-8.6-8.5H38.3A37.3 37.3 0 0 0 1 38v129.8c0 4.7 3.8 8.5 8.6 8.5"
        fill="#3c3b6e"
    />
    <path
        d="m25.1 20.4 2 5.7h6c.7 0 1 1 .4 1.5L28.7 31l1.8 5.8a.8.8 0 0 1-1.3.9l-4.9-3.5-4.8 3.5a.8.8 0 0 1-1.3-1L20 31l-4.8-3.5a.8.8 0 0 1 .5-1.5h6l1.9-5.7a.8.8 0 0 1 1.5 0m0 29.9 2 5.7h6c.7 0 1 1 .4 1.5L28.7 61l1.8 5.7a.8.8 0 0 1-1.3.9L24.3 64l-4.8 3.5a.8.8 0 0 1-1.3-1L20 61l-4.8-3.6a.8.8 0 0 1 .5-1.5h6l1.9-5.7a.8.8 0 0 1 1.5 0m0 29.8 2 5.7h6c.7 0 1 1 .4 1.5l-4.8 3.6 1.8 5.7a.8.8 0 0 1-1.3.9l-4.9-3.5-4.8 3.5a.8.8 0 0 1-1.3-.9l1.8-5.7-4.8-3.6a.8.8 0 0 1 .5-1.5h6l1.9-5.7a.8.8 0 0 1 1.5 0m0 29.8 2 5.7h6c.7 0 1 1 .4 1.5l-4.8 3.6 1.8 5.7a.8.8 0 0 1-1.3 1l-4.9-3.6-4.8 3.5a.8.8 0 0 1-1.3-.9l1.8-5.7-4.8-3.6a.8.8 0 0 1 .5-1.4h6l1.9-5.8a.8.8 0 0 1 1.5 0m0 29.8 2 5.7h6c.7 0 1 1 .4 1.5l-4.8 3.6 1.8 5.7a.8.8 0 0 1-1.3 1l-4.9-3.6-4.8 3.5a.8.8 0 0 1-1.3-.9l1.8-5.7-4.8-3.6a.8.8 0 0 1 .5-1.4h6l1.9-5.8a.8.8 0 0 1 1.5 0M48.3 35l1.9 5.7h6c.7 0 1 1 .4 1.5l-4.8 3.6 1.8 5.7a.8.8 0 0 1-1.2.9l-5-3.5-4.8 3.5a.8.8 0 0 1-1.2-1l1.8-5.6-4.9-3.6a.8.8 0 0 1 .5-1.5h6l2-5.7a.8.8 0 0 1 1.5 0m0 29.8 1.9 5.7h6c.7 0 1 1 .4 1.5l-4.8 3.6 1.8 5.7a.8.8 0 0 1-1.2 1l-5-3.6-4.8 3.5a.8.8 0 0 1-1.2-.9l1.8-5.7-4.9-3.6a.8.8 0 0 1 .5-1.5h6l2-5.7a.8.8 0 0 1 1.5 0m0 29.8 1.9 5.7h6c.7 0 1 1 .4 1.5l-4.8 3.6 1.8 5.7a.8.8 0 0 1-1.2 1l-5-3.6-4.8 3.5a.8.8 0 0 1-1.2-.9l1.8-5.7-4.9-3.6a.8.8 0 0 1 .5-1.4h6l2-5.8a.8.8 0 0 1 1.5 0m0 29.8 1.9 5.7h6c.7 0 1 1 .4 1.5l-4.8 3.6 1.8 5.7a.8.8 0 0 1-1.2 1l-5-3.6-4.8 3.5a.8.8 0 0 1-1.2-.9l1.8-5.7-4.9-3.6a.8.8 0 0 1 .5-1.4h6l2-5.8a.8.8 0 0 1 1.5 0m23.1-104 1.9 5.7h6c.8 0 1.1 1 .5 1.5L74.9 31l1.9 5.8a.8.8 0 0 1-1.3.9l-4.9-3.5-4.9 3.5a.8.8 0 0 1-1.2-1l1.8-5.7-4.8-3.5A.8.8 0 0 1 62 26h6l1.9-5.7a.8.8 0 0 1 1.5 0m0 29.9 1.9 5.7h6c.8 0 1.1 1 .5 1.5L74.9 61l1.9 5.7a.8.8 0 0 1-1.3.9L70.6 64l-4.9 3.5a.8.8 0 0 1-1.2-1l1.8-5.6-4.8-3.6a.8.8 0 0 1 .5-1.5h6l1.9-5.7a.8.8 0 0 1 1.5 0m0 29.9 1.9 5.7h6c.8 0 1.1 1 .5 1.5l-4.9 3.6 1.9 5.7a.8.8 0 0 1-1.3.9l-4.9-3.5-4.9 3.5a.8.8 0 0 1-1.2-.9l1.8-5.7-4.8-3.6a.8.8 0 0 1 .5-1.5h6l1.9-5.7a.8.8 0 0 1 1.5 0m0 29.8 1.9 5.7h6c.8 0 1.1 1 .5 1.5l-4.9 3.6 1.9 5.7a.8.8 0 0 1-1.3 1l-4.9-3.6-4.9 3.5a.8.8 0 0 1-1.2-.9l1.8-5.7-4.8-3.6a.8.8 0 0 1 .5-1.4h6l1.9-5.8a.8.8 0 0 1 1.5 0m0 29.8 1.9 5.7h6c.8 0 1.1 1 .5 1.5l-4.9 3.6 1.9 5.7a.8.8 0 0 1-1.3 1l-4.9-3.6-4.9 3.5a.8.8 0 0 1-1.2-.9l1.8-5.7-4.8-3.6a.8.8 0 0 1 .5-1.4h6l1.9-5.8a.8.8 0 0 1 1.5 0M94.5 35l2 5.7h6c.7 0 1 1 .4 1.5l-4.8 3.6 1.8 5.7a.8.8 0 0 1-1.2.9l-5-3.5-4.8 3.5a.8.8 0 0 1-1.3-1l1.9-5.6-4.9-3.6a.8.8 0 0 1 .5-1.5h6L93 35a.8.8 0 0 1 1.5 0m0 29.8 2 5.7h6c.7 0 1 1 .4 1.5l-4.8 3.6 1.8 5.7a.8.8 0 0 1-1.2 1l-5-3.6-4.8 3.5a.8.8 0 0 1-1.3-.9l1.9-5.7-4.9-3.6a.8.8 0 0 1 .5-1.5h6l1.9-5.7a.8.8 0 0 1 1.5 0m0 29.8 2 5.7h6c.7 0 1 1 .4 1.5l-4.8 3.6 1.8 5.7a.8.8 0 0 1-1.2 1l-5-3.6L89 112a.8.8 0 0 1-1.3-.9l1.9-5.7-4.9-3.6a.8.8 0 0 1 .5-1.4h6l1.9-5.8a.8.8 0 0 1 1.5 0m-.1 29.8 2 5.7h6c.7 0 1 1 .4 1.5l-4.8 3.6 1.8 5.7a.8.8 0 0 1-1.2 1l-5-3.6-4.8 3.5a.8.8 0 0 1-1.3-.9l1.9-5.7-4.9-3.6a.8.8 0 0 1 .5-1.4h6l1.9-5.8a.8.8 0 0 1 1.5 0m23.2-104 1.9 5.7h6c.8 0 1 1 .5 1.5l-4.9 3.5L123 37a.8.8 0 0 1-1.2.9l-4.9-3.5-4.9 3.5a.8.8 0 0 1-1.2-1l1.8-5.7-4.8-3.5a.8.8 0 0 1 .4-1.5h6l2-5.7a.8.8 0 0 1 1.5 0m0 29.7 1.9 5.7h6c.8 0 1 1 .5 1.5l-4.9 3.6 1.8 5.7a.8.8 0 0 1-1.2.9l-4.9-3.5-4.9 3.5a.8.8 0 0 1-1.2-1l1.8-5.6-4.8-3.6a.8.8 0 0 1 .4-1.5h6l2-5.7a.8.8 0 0 1 1.5 0m0 29.8 1.9 5.7h6c.8 0 1 1 .5 1.5l-4.9 3.6 1.8 5.7a.8.8 0 0 1-1.2.9l-4.9-3.5-4.9 3.5a.8.8 0 0 1-1.2-.9l1.8-5.7-4.8-3.6a.8.8 0 0 1 .4-1.5h6l2-5.7a.8.8 0 0 1 1.5 0m0 29.8 1.9 5.7h6c.8 0 1 1 .5 1.5l-4.9 3.6 1.8 5.7a.8.8 0 0 1-1.2 1l-4.9-3.6-4.9 3.5a.8.8 0 0 1-1.2-.9l1.8-5.7-4.8-3.6a.8.8 0 0 1 .4-1.4h6l2-5.8a.8.8 0 0 1 1.5 0m0 29.8 1.9 5.7h6c.8 0 1 1 .5 1.5l-4.9 3.6 1.8 5.7a.8.8 0 0 1-1.2 1l-4.9-3.6-4.9 3.5a.8.8 0 0 1-1.2-.9l1.8-5.7-4.8-3.6a.8.8 0 0 1 .4-1.4h6l2-5.8a.8.8 0 0 1 1.5 0M140.8 35l2 5.7h6c.7 0 1 1 .4 1.5l-4.8 3.6 1.8 5.7a.8.8 0 0 1-1.3.9l-4.8-3.5-5 3.5a.8.8 0 0 1-1.2-1l1.8-5.6-4.8-3.6a.8.8 0 0 1 .5-1.5h6l1.9-5.7a.8.8 0 0 1 1.5 0m0 29.8 2 5.7h6c.7 0 1 1 .4 1.5l-4.8 3.6 1.8 5.7a.8.8 0 0 1-1.3 1l-4.8-3.6-5 3.5a.8.8 0 0 1-1.2-.9l1.8-5.7L131 72a.8.8 0 0 1 .5-1.5h6l1.9-5.7a.8.8 0 0 1 1.5 0m-.1 29.8 2 5.7h6c.7 0 1 1 .4 1.5l-4.8 3.6 1.8 5.7a.8.8 0 0 1-1.3 1l-4.8-3.6-5 3.5a.8.8 0 0 1-1.2-.9l1.8-5.7-4.8-3.6a.8.8 0 0 1 .5-1.4h6l1.9-5.8a.8.8 0 0 1 1.5 0m0 29.8 2 5.7h6c.7 0 1 1 .4 1.5l-4.8 3.6 1.8 5.7a.8.8 0 0 1-1.3 1l-4.8-3.6-5 3.5a.8.8 0 0 1-1.2-.9l1.8-5.7-4.8-3.6a.8.8 0 0 1 .5-1.4h6l1.9-5.8a.8.8 0 0 1 1.5 0m23.2-104 1.9 5.7h6c.8 0 1 1 .5 1.5l-4.9 3.5 1.8 5.8a.8.8 0 0 1-1.2.9l-4.9-3.5-4.9 3.5a.8.8 0 0 1-1.2-1l1.8-5.7-4.9-3.5a.8.8 0 0 1 .5-1.5h6l2-5.7a.8.8 0 0 1 1.5 0m0 29.8 1.9 5.7h6c.8 0 1 1 .5 1.5l-4.9 3.6 1.8 5.7a.8.8 0 0 1-1.2.9l-4.9-3.5-4.9 3.5a.8.8 0 0 1-1.2-1l1.8-5.6-4.9-3.6a.8.8 0 0 1 .5-1.5h6l2-5.7c.2-.8 1.2-.8 1.5 0m0 29.8 1.9 5.7h6c.8 0 1 1 .5 1.5l-4.9 3.6 1.8 5.7a.8.8 0 0 1-1.2.9l-4.9-3.5-4.9 3.5a.8.8 0 0 1-1.2-.9l1.8-5.7-4.9-3.6a.8.8 0 0 1 .5-1.5h6l2-5.7a.8.8 0 0 1 1.5 0m0 29.8 1.9 5.7h6c.8 0 1 1 .5 1.5l-4.9 3.6 1.8 5.7a.8.8 0 0 1-1.2 1l-4.9-3.6-4.9 3.5a.8.8 0 0 1-1.2-.9l1.8-5.7-4.9-3.6a.8.8 0 0 1 .5-1.4h6l2-5.8a.8.8 0 0 1 1.5 0m0 29.8 1.9 5.7h6c.8 0 1 1 .5 1.5l-4.9 3.6 1.8 5.7a.8.8 0 0 1-1.2 1l-4.9-3.6-4.9 3.5a.8.8 0 0 1-1.2-.9l1.8-5.7-4.9-3.6a.8.8 0 0 1 .5-1.4h6l2-5.8c.2-.7 1.2-.7 1.5 0M187.1 35l2 5.7h6c.7 0 1 1 .4 1.5l-4.8 3.6 1.8 5.7a.8.8 0 0 1-1.3.9l-4.9-3.5-4.8 3.5a.8.8 0 0 1-1.3-1l1.8-5.6-4.8-3.6a.8.8 0 0 1 .5-1.5h6l1.9-5.7a.8.8 0 0 1 1.5 0m0 29.8 2 5.7h6c.7 0 1 1 .4 1.5l-4.8 3.6 1.8 5.7a.8.8 0 0 1-1.3 1l-4.9-3.6-4.8 3.5a.8.8 0 0 1-1.3-.9l1.8-5.7-4.8-3.6a.8.8 0 0 1 .5-1.5h6l1.9-5.7a.8.8 0 0 1 1.5 0m0 29.8 2 5.7h6c.7 0 1 1 .4 1.5l-4.8 3.6 1.8 5.7a.8.8 0 0 1-1.3 1l-4.9-3.6-4.8 3.5a.8.8 0 0 1-1.3-.9l1.8-5.7-4.8-3.6a.8.8 0 0 1 .5-1.4h6l1.9-5.8a.8.8 0 0 1 1.5 0m0 29.8 2 5.7h6c.7 0 1 1 .4 1.5l-4.8 3.6 1.8 5.7a.8.8 0 0 1-1.3 1l-4.9-3.6-4.8 3.5a.8.8 0 0 1-1.3-.9l1.8-5.7-4.8-3.6a.8.8 0 0 1 .5-1.4h6l1.9-5.8a.8.8 0 0 1 1.5 0m23.2-104 1.9 5.7h6c.7 0 1 1 .4 1.5l-4.8 3.5 1.8 5.8a.8.8 0 0 1-1.2.9l-5-3.5-4.8 3.5a.8.8 0 0 1-1.2-1l1.8-5.7-4.9-3.5a.8.8 0 0 1 .5-1.5h6l2-5.7a.8.8 0 0 1 1.5 0m0 29.8 1.9 5.7h6c.7 0 1 1 .4 1.5l-4.8 3.6 1.8 5.7a.8.8 0 0 1-1.2.9l-5-3.5-4.8 3.5a.8.8 0 0 1-1.2-1l1.8-5.6-4.9-3.6a.8.8 0 0 1 .5-1.5h6l2-5.7a.8.8 0 0 1 1.5 0m0 29.8 1.9 5.7h6c.7 0 1 1 .4 1.5l-4.8 3.6 1.8 5.7a.8.8 0 0 1-1.2.9l-5-3.5-4.8 3.5a.8.8 0 0 1-1.2-.9l1.8-5.7-4.9-3.6a.8.8 0 0 1 .5-1.5h6l2-5.7a.8.8 0 0 1 1.5 0m0 29.8 1.9 5.7h6c.7 0 1 1 .4 1.5l-4.8 3.6 1.8 5.7a.8.8 0 0 1-1.2 1l-5-3.6-4.8 3.5a.8.8 0 0 1-1.2-.9l1.8-5.7-4.9-3.6a.8.8 0 0 1 .5-1.4h6l2-5.8a.8.8 0 0 1 1.5 0m0 29.8 1.9 5.7h6c.7 0 1 1 .4 1.5l-4.8 3.6 1.8 5.7a.8.8 0 0 1-1.2 1l-5-3.6-4.8 3.5a.8.8 0 0 1-1.2-.9l1.8-5.7-4.9-3.6a.8.8 0 0 1 .5-1.4h6l2-5.8a.8.8 0 0 1 1.5 0"
        fill="#fff"
    />
</svg>
