<svg xmlns="http://www.w3.org/2000/svg" width="50" height="50" viewBox="0 0 400 400">
    <defs>
        <linearGradient id="prefix__linear-gradient" x1="12.9" y1="200.4" x2="387.1" y2="200.4" gradientUnits="userSpaceOnUse">
            <stop offset="0" stop-color="#00b9ff" />
            <stop offset="1" stop-color="#001689" />
        </linearGradient>
        <clipPath id="prefix__clippath"><path fill="url(#prefix__linear-gradient)" stroke-width="0" d="M293.6 38.3H106.4L12.9 200.4l93.5 162.1h187.2l93.5-162.1z" /></clipPath>
        <style>
            .prefix__cls-5 {
                stroke-width: 0;
                fill: #fff;
            }
        </style>
    </defs>
    <g style="isolation: isolate;">
        <g id="prefix__Layer_1" data-name="Layer 1">
            <path fill="url(#prefix__linear-gradient)" d="M293.6 38.3H106.4L12.9 200.4l93.5 162.1h187.2l93.5-162.1z" />
            <g style="mix-blend-mode: overlay;" clip-path="url(#prefix__clippath)">
                <path class="prefix__cls-5" d="M156.5 350.8h-44.4L90 312.3l22.2-38.4h44.4l22.2 38.4zm-43.1-2.2h41.8l21-36.3-21-36.2h-41.8l-21 36.3z" />
                <path class="prefix__cls-5" d="M91.9 388.1H47.4l-22.2-38.4 22.2-38.5h44.3l22.2 38.5zm-43.2-2.2h41.9l20.9-36.2-21-36.2H48.8l-20.9 36.2z" />
                <path class="prefix__cls-5" d="M156.5 425.4H112L90 387l22.2-38.4h44.4l22.2 38.4zm-43.1-2.2h41.8l21-36.2-21-36.2h-41.8l-21 36.2z" />
                <path
                    class="prefix__cls-5"
                    d="M221.1 388.1h-44.3l-22.2-38.4 22.2-38.5H221l22.2 38.5zm-43-2.2h41.8l20.9-36.2-21-36.2H178l-20.9 36.2zm172.3 2.2h-44.3l-22.2-38.4 22.2-38.5h44.3l22.2 38.5zm-43-2.2h41.8l20.9-36.2-21-36.2h-41.8l-20.9 36.2z"
                />
                <path class="prefix__cls-5" d="M285.8 425.4h-44.4L219.2 387l22.2-38.4h44.4L308 387zm-43.1-2.2h41.8l21-36.2-21-36.2h-41.8l-21 36.2z" />
                <path
                    class="prefix__cls-5"
                    d="M285.8 350.8h-44.4l-22.2-38.5 22.2-38.4h44.4l22.2 38.4zm-43.1-2.2h41.8l21-36.3-21-36.2h-41.8l-21 36.3zm43.1-147.2h-44.4l-22.2-38.5 22.2-38.4h44.4L308 163zm-43.1-2.2h41.8l21-36.3-21-36.2h-41.8l-21 36.2zm172.3 2.2h-44.3l-22.2-38.5 22.2-38.4h44.4l22.2 38.4zm-43-2.2h41.8l21-36.3-21-36.2H372L351 163z"
                />
                <path class="prefix__cls-5" d="M350.4 238.7h-44.3l-22.2-38.4 22.2-38.5h44.3l22.2 38.4zm-43-2.2h41.8l20.9-36.2-21-36.3h-41.8l-20.9 36.3z" />
                <path
                    class="prefix__cls-5"
                    d="M350.4 164h-44.3l-22.2-38.4L306 87.2h44.3l22.2 38.4zm-43-2.2h41.8l20.9-36.2-21-36.2h-41.8l-20.9 36.2zm43 151.5h-44.3L283.9 275l22.2-38.4h44.3l22.2 38.4zm-43-2.2h41.8L370 275l-21-36.2h-41.8L286.3 275z"
                />
                <path
                    class="prefix__cls-5"
                    d="M415 276h-44.3l-22.2-38.4 22.2-38.5H415l22.2 38.5zm-43-2.2h41.8l21-36.2-21-36.2H372l-21 36.2zm-280.1-35H47.4l-22.2-38.4 22.2-38.5h44.3l22.2 38.5zm-43.2-2.2h41.9l20.9-36.2-21-36.2H48.8l-20.9 36.2z"
                />
                <path class="prefix__cls-5" d="M27.2 276.1h-44.4l-22.2-38.4 22.2-38.4h44.4l22.2 38.4zm-43.1-2.2h41.8l21-36.2-21-36.2h-41.8l-21 36.2z" />
                <path
                    class="prefix__cls-5"
                    d="M27.2 201.5h-44.4L-39.4 163l22.2-38.4h44.4L49.4 163zm-43.1-2.2h41.8L47 163l-21-36.2h-41.8l-21 36.2zM91.8 313.5H47.5L25.3 275l22.2-38.4h44.3L114 275zm-43-2.3h41.8l20.9-36.2-21-36.2H48.8l-21 36.2z"
                />
                <path
                    class="prefix__cls-5"
                    d="M91.9 164.2H47.4l-22.2-38.5 22.2-38.4h44.3l22.2 38.4zm-43.2-2.3h41.9l20.9-36.2-21-36.2H48.8l-20.9 36.2zm172.4 2.3h-44.3l-22.2-38.5 22.2-38.4H221l22.2 38.4zm-43-2.3h41.8l20.9-36.2-21-36.2H178l-20.9 36.2z"
                />
                <path class="prefix__cls-5" d="M156.5 201.5H112L90 163l22.2-38.4h44.4l22.2 38.4zm-43.1-2.2h41.8l21-36.3-21-36.2h-41.8l-21 36.2z" />
                <path
                    class="prefix__cls-5"
                    d="M156.5 126.8H112L90 88.4 112.1 50h44.4l22.2 38.4zm-43.1-2.2h41.8l21-36.2-21-36.2h-41.8l-21 36.2zm43.1 151.5H112l-22-38.4 22.2-38.4h44.4l22.2 38.4zm-43.1-2.2h41.8l21-36.2-21-36.2h-41.8l-21 36.2zm172.4 2.2h-44.4l-22.2-38.4 22.2-38.4h44.4l22.2 38.4zm-43.1-2.2h41.8l21-36.2-21-36.2h-41.8l-21 36.2z"
                />
                <path class="prefix__cls-5" d="M221.1 313.5h-44.3L154.6 275l22.2-38.4H221l22.2 38.4zm-43-2.3h41.8l20.9-36.2-21-36.2H178L157.1 275z" />
                <path
                    class="prefix__cls-5"
                    d="M221.1 238.8h-44.3l-22.2-38.4 22.2-38.5H221l22.2 38.5zm-43-2.2h41.8l20.9-36.2-21-36.2H178l-20.9 36.2zM156.5 52.2H112L90 13.8l22.2-38.5h44.4l22.2 38.5zM113.4 50h41.8l21-36.2-21-36.2h-41.8l-21 36.2z"
                />
                <path
                    class="prefix__cls-5"
                    d="M91.8 89.5H47.5L25.3 51.1l22.2-38.5h44.3L114 51.1zm-43-2.2h41.8L111.5 51l-21-36.2H48.8L27.8 51zm172.3 2.2h-44.3l-22.2-38.4 22.2-38.5H221l22.2 38.5zm-43-2.2h41.8L240.8 51l-21-36.2H178L157.1 51zm172.3 2.2h-44.3l-22.2-38.4L306 12.6h44.3l22.2 38.5zm-43-2.2h41.8L370 51l-21-36.2h-41.8L286.4 51z"
                />
                <path class="prefix__cls-5" d="M285.8 126.8h-44.4l-22.2-38.4L241.4 50h44.4L308 88.4zm-43.1-2.2h41.8l21-36.2-21-36.2h-41.8l-21 36.2z" />
                <path class="prefix__cls-5" d="M285.8 52.2h-44.4l-22.2-38.4 22.2-38.5h44.4L308 13.8zM242.7 50h41.8l21-36.2-21-36.2h-41.8l-21 36.2z" />
                <circle class="prefix__cls-5" cx="48.2" cy="163.1" r="4" />
                <circle class="prefix__cls-5" cx="111.4" cy="349.3" r="4" />
                <path class="prefix__cls-5" d="M111.4 279.3a4 4 0 0 1 0-8.1 4 4 0 0 1 0 8m131.2-.9a4 4 0 0 1 0-8.1 4 4 0 0 1 0 8" />
                <circle class="prefix__cls-5" cx="157.5" cy="200" r="4" />
                <circle class="prefix__cls-5" cx="242.6" cy="200" r="4" transform="rotate(-67.5 242.6 200)" />
                <path
                    class="prefix__cls-5"
                    d="M111.4 129.4a4 4 0 0 1 0-8.1 4 4 0 0 1 0 8m46.1.1a4 4 0 0 1 0-8.1 4 4 0 0 1 0 8m85.1.1a4 4 0 0 1 0-8.1 4 4 0 0 1 0 8M111.4 55.1a4 4 0 0 1 0-8 4 4 0 0 1 0 8m45.1 0a4 4 0 0 1 0-8 4 4 0 0 1 0 8m86.1 1a4 4 0 0 1 0-8 4 4 0 0 1 0 8M92.2 316.8a4 4 0 0 1 0-8.2 4 4 0 0 1 0 8.1m86 .1a4 4 0 0 1 0-8.2 4 4 0 0 1 0 8.1"
                />
                <circle class="prefix__cls-5" cx="92.2" cy="88" r="4" transform="rotate(-67.3 92.2 88)" />
                <circle class="prefix__cls-5" cx="178.2" cy="88" r="4" />
                <circle class="prefix__cls-5" cx="92.2" cy="163.1" r="4" transform="rotate(-67.3 92.2 163.1)" />
                <path
                    class="prefix__cls-5"
                    d="M92.2 241.9a4 4 0 0 1 0-8.2 4 4 0 0 1 0 8.2m86 0a4 4 0 0 1 0-8.2 4 4 0 0 1 0 8.2m128.4 74.9a4 4 0 0 1 0-8.2 4 4 0 0 1 0 8.1m-85.9-149.6a4 4 0 0 1 0-8 4 4 0 0 1 0 8m85.9 0a4 4 0 0 1 0-8 4 4 0 0 1 0 8m-21.3 111.2a4 4 0 0 1 0-8.1 4 4 0 0 1 0 8m0-74.2a4 4 0 0 1 0-8 4 4 0 0 1 0 8m0-147.9a4 4 0 0 1 0-8 4 4 0 0 1 0 8m65.3 185.8a4 4 0 0 1 0-8.2 4 4 0 0 1 0 8.2m-302.4-1.2a3 3 0 1 1 0-5.8 3 3 0 0 1 0 5.8"
                />
                <circle class="prefix__cls-5" cx="156.5" cy="349.3" r="2.9" />
                <circle class="prefix__cls-5" cx="156.5" cy="275.2" r="2.9" />
                <path
                    class="prefix__cls-5"
                    d="M220.7 315.6a3 3 0 1 1 0-5.9 3 3 0 0 1 0 6m0-224.7a3 3 0 1 1 0-6 3 3 0 0 1 0 6m85.9 0a3 3 0 1 1 0-6 3 3 0 0 1 0 6m-85.9 149.7a3 3 0 1 1 0-5.8 3 3 0 0 1 0 5.8m85.9 0a3 3 0 1 1 0-5.8 3 3 0 0 1 0 5.8m44-74.7a3 3 0 1 1 0-5.9 3 3 0 0 1 0 6m-238.1 37.2a3 3 0 1 1 0-6 3 3 0 0 1 0 6m63.8-35.7a4 4 0 0 1 0-8 4 4 0 0 1 0 8M286 130.3a4 4 0 0 1 0-8.1 4 4 0 0 1 0 8m-45 223.6a4 4 0 0 1 0-8 4 4 0 0 1 0 8m44 0a4 4 0 0 1 0-8 4 4 0 0 1 0 8"
                />
            </g>
            <path
                d="m293.5 38 93.6 162-93.6 162h-187L12.9 200l93.6-162zm0-6h-187a6 6 0 0 0-5.2 3L7.7 197a6 6 0 0 0 0 6l93.6 162q1.7 3 5.2 3h187a6 6 0 0 0 5.2-3l93.6-162a6 6 0 0 0 0-6L298.7 35a6 6 0 0 0-5.2-3"
                stroke-width="0"
                fill="#9fe8f5"
            />
        </g>
    </g>
</svg>
