<svg xmlns="http://www.w3.org/2000/svg" version="1.1" width="1200" height="120" preserveAspectRatio="none" viewBox="0 0 1200 120">
    <g fill="none">
        <rect width="1200" height="120" x="0" y="0" fill="none"></rect>
        <path d="M2.67 -5.17L41.64 17.33L41.64 62.33L2.67 84.83L-36.3 62.33L-36.3 17.33zM2.67 129.83L41.64 152.33L41.64 197.33L2.67 219.83L-36.3 197.33L-36.3 152.33zM80.61 -5.17L119.59 17.33L119.59 62.33L80.61 84.83L41.64 62.33L41.64 17.33zM80.61 129.83L119.59 152.33L119.59 197.33L80.61 219.83L41.64 197.33L41.64 152.33zM158.56 -5.17L197.53 17.33L197.53 62.33L158.56 84.83L119.59 62.33L119.59 17.33zM197.53 62.33L236.5 84.83L236.5 129.83L197.53 152.33L158.56 129.83L158.56 84.83zM236.5 -5.17L275.48 17.33L275.48 62.33L236.5 84.83L197.53 62.33L197.53 17.33zM275.48 62.33L314.45 84.83L314.45 129.83L275.48 152.33L236.5 129.83L236.5 84.83zM236.5 129.83L275.48 152.33L275.48 197.33L236.5 219.83L197.53 197.33L197.53 152.33zM353.42 62.33L392.39 84.83L392.39 129.83L353.42 152.33L314.45 129.83L314.45 84.83zM314.45 129.83L353.42 152.33L353.42 197.33L314.45 219.83L275.48 197.33L275.48 152.33zM392.39 -5.17L431.36 17.33L431.36 62.33L392.39 84.83L353.42 62.33L353.42 17.33zM431.36 62.33L470.34 84.83L470.34 129.83L431.36 152.33L392.39 129.83L392.39 84.83zM509.31 62.33L548.28 84.83L548.28 129.83L509.31 152.33L470.34 129.83L470.34 84.83zM626.23 -5.17L665.2 17.33L665.2 62.33L626.23 84.83L587.25 62.33L587.25 17.33zM626.23 129.83L665.2 152.33L665.2 197.33L626.23 219.83L587.25 197.33L587.25 152.33zM704.17 129.83L743.14 152.33L743.14 197.33L704.17 219.83L665.2 197.33L665.2 152.33zM782.12 129.83L821.09 152.33L821.09 197.33L782.12 219.83L743.14 197.33L743.14 152.33zM860.06 -5.17L899.03 17.33L899.03 62.33L860.06 84.83L821.09 62.33L821.09 17.33zM938 129.83L976.98 152.33L976.98 197.33L938 219.83L899.03 197.33L899.03 152.33zM1015.95 -5.17L1054.92 17.33L1054.92 62.33L1015.95 84.83L976.98 62.33L976.98 17.33zM1015.95 129.83L1054.92 152.33L1054.92 197.33L1015.95 219.83L976.98 197.33L976.98 152.33zM1132.87 62.33L1171.84 84.83L1171.84 129.83L1132.87 152.33L1093.89 129.83L1093.89 84.83zM1093.89 129.83L1132.87 152.33L1132.87 197.33L1093.89 219.83L1054.92 197.33L1054.92 152.33zM1171.84 -5.17L1210.81 17.33L1210.81 62.33L1171.84 84.83L1132.87 62.33L1132.87 17.33zM1210.81 62.33L1249.78 84.83L1249.78 129.83L1210.81 152.33L1171.84 129.83L1171.84 84.83zM1171.84 129.83L1210.81 152.33L1210.81 197.33L1171.84 219.83L1132.87 197.33L1132.87 152.33z" stroke="#FFEF80" stroke-width="3"></path>
        <path d="M14.33 -22.88L35.12 -10.88L35.12 13.12L14.33 25.12L-6.46 13.12L-6.46 -10.88zM76.69 85.12L97.47 97.12L97.47 121.12L76.69 133.12L55.9 121.12L55.9 97.12zM97.47 -22.88L118.26 -10.88L118.26 13.12L97.47 25.12L76.69 13.12L76.69 -10.88zM139.04 49.12L159.83 61.12L159.83 85.12L139.04 97.12L118.26 85.12L118.26 61.12zM201.4 85.12L222.18 97.12L222.18 121.12L201.4 133.12L180.61 121.12L180.61 97.12zM284.54 13.12L305.32 25.12L305.32 49.12L284.54 61.12L263.75 49.12L263.75 25.12zM263.75 49.12L284.54 61.12L284.54 85.12L263.75 97.12L242.97 85.12L242.97 61.12zM284.54 85.12L305.32 97.12L305.32 121.12L284.54 133.12L263.75 121.12L263.75 97.12zM409.25 13.12L430.03 25.12L430.03 49.12L409.25 61.12L388.46 49.12L388.46 25.12zM430.03 -22.88L450.82 -10.88L450.82 13.12L430.03 25.12L409.25 13.12L409.25 -10.88zM492.39 13.12L513.17 25.12L513.17 49.12L492.39 61.12L471.6 49.12L471.6 25.12zM471.6 49.12L492.39 61.12L492.39 85.12L471.6 97.12L450.82 85.12L450.82 61.12zM492.39 85.12L513.17 97.12L513.17 121.12L492.39 133.12L471.6 121.12L471.6 97.12zM554.75 -22.88L575.53 -10.88L575.53 13.12L554.75 25.12L533.96 13.12L533.96 -10.88zM575.53 13.12L596.32 25.12L596.32 49.12L575.53 61.12L554.75 49.12L554.75 25.12zM658.67 85.12L679.46 97.12L679.46 121.12L658.67 133.12L637.89 121.12L637.89 97.12zM679.46 -22.88L700.24 -10.88L700.24 13.12L679.46 25.12L658.67 13.12L658.67 -10.88zM741.81 85.12L762.6 97.12L762.6 121.12L741.81 133.12L721.03 121.12L721.03 97.12zM762.6 -22.88L783.38 -10.88L783.38 13.12L762.6 25.12L741.81 13.12L741.81 -10.88zM783.38 85.12L804.17 97.12L804.17 121.12L783.38 133.12L762.6 121.12L762.6 97.12zM824.95 85.12L845.74 97.12L845.74 121.12L824.95 133.12L804.17 121.12L804.17 97.12zM991.23 13.12L1012.02 25.12L1012.02 49.12L991.23 61.12L970.45 49.12L970.45 25.12zM991.23 85.12L1012.02 97.12L1012.02 121.12L991.23 133.12L970.45 121.12L970.45 97.12zM1012.02 -22.88L1032.8 -10.88L1032.8 13.12L1012.02 25.12L991.23 13.12L991.23 -10.88zM1053.59 49.12L1074.38 61.12L1074.38 85.12L1053.59 97.12L1032.8 85.12L1032.8 61.12zM1095.16 -22.88L1115.95 -10.88L1115.95 13.12L1095.16 25.12L1074.38 13.12L1074.38 -10.88zM1095.16 49.12L1115.95 61.12L1115.95 85.12L1095.16 97.12L1074.38 85.12L1074.38 61.12zM1136.73 -22.88L1157.52 -10.88L1157.52 13.12L1136.73 25.12L1115.95 13.12L1115.95 -10.88zM1157.52 85.12L1178.3 97.12L1178.3 121.12L1157.52 133.12L1136.73 121.12L1136.73 97.12zM1178.3 -22.88L1199.09 -10.88L1199.09 13.12L1178.3 25.12L1157.52 13.12L1157.52 -10.88z" stroke="#80FF99" stroke-width="2"></path>
        <path d="M11.33 -22.88 a3 3 0 1 0 6 0 a3 3 0 1 0 -6 0zM32.12 -10.88 a3 3 0 1 0 6 0 a3 3 0 1 0 -6 0zM32.12 13.12 a3 3 0 1 0 6 0 a3 3 0 1 0 -6 0zM11.33 25.12 a3 3 0 1 0 6 0 a3 3 0 1 0 -6 0zM-9.46 13.12 a3 3 0 1 0 6 0 a3 3 0 1 0 -6 0zM-9.46 -10.88 a3 3 0 1 0 6 0 a3 3 0 1 0 -6 0zM73.69 85.12 a3 3 0 1 0 6 0 a3 3 0 1 0 -6 0zM94.47 97.12 a3 3 0 1 0 6 0 a3 3 0 1 0 -6 0zM94.47 121.12 a3 3 0 1 0 6 0 a3 3 0 1 0 -6 0zM73.69 133.12 a3 3 0 1 0 6 0 a3 3 0 1 0 -6 0zM52.9 121.12 a3 3 0 1 0 6 0 a3 3 0 1 0 -6 0zM52.9 97.12 a3 3 0 1 0 6 0 a3 3 0 1 0 -6 0zM94.47 -22.88 a3 3 0 1 0 6 0 a3 3 0 1 0 -6 0zM115.26 -10.88 a3 3 0 1 0 6 0 a3 3 0 1 0 -6 0zM115.26 13.12 a3 3 0 1 0 6 0 a3 3 0 1 0 -6 0zM94.47 25.12 a3 3 0 1 0 6 0 a3 3 0 1 0 -6 0zM73.69 13.12 a3 3 0 1 0 6 0 a3 3 0 1 0 -6 0zM73.69 -10.88 a3 3 0 1 0 6 0 a3 3 0 1 0 -6 0zM136.04 49.12 a3 3 0 1 0 6 0 a3 3 0 1 0 -6 0zM156.83 61.12 a3 3 0 1 0 6 0 a3 3 0 1 0 -6 0zM156.83 85.12 a3 3 0 1 0 6 0 a3 3 0 1 0 -6 0zM136.04 97.12 a3 3 0 1 0 6 0 a3 3 0 1 0 -6 0zM115.26 85.12 a3 3 0 1 0 6 0 a3 3 0 1 0 -6 0zM115.26 61.12 a3 3 0 1 0 6 0 a3 3 0 1 0 -6 0zM198.4 85.12 a3 3 0 1 0 6 0 a3 3 0 1 0 -6 0zM219.18 97.12 a3 3 0 1 0 6 0 a3 3 0 1 0 -6 0zM219.18 121.12 a3 3 0 1 0 6 0 a3 3 0 1 0 -6 0zM198.4 133.12 a3 3 0 1 0 6 0 a3 3 0 1 0 -6 0zM177.61 121.12 a3 3 0 1 0 6 0 a3 3 0 1 0 -6 0zM177.61 97.12 a3 3 0 1 0 6 0 a3 3 0 1 0 -6 0zM281.54 13.12 a3 3 0 1 0 6 0 a3 3 0 1 0 -6 0zM302.32 25.12 a3 3 0 1 0 6 0 a3 3 0 1 0 -6 0zM302.32 49.12 a3 3 0 1 0 6 0 a3 3 0 1 0 -6 0zM281.54 61.12 a3 3 0 1 0 6 0 a3 3 0 1 0 -6 0zM260.75 49.12 a3 3 0 1 0 6 0 a3 3 0 1 0 -6 0zM260.75 25.12 a3 3 0 1 0 6 0 a3 3 0 1 0 -6 0zM281.54 85.12 a3 3 0 1 0 6 0 a3 3 0 1 0 -6 0zM260.75 97.12 a3 3 0 1 0 6 0 a3 3 0 1 0 -6 0zM239.97 85.12 a3 3 0 1 0 6 0 a3 3 0 1 0 -6 0zM239.97 61.12 a3 3 0 1 0 6 0 a3 3 0 1 0 -6 0zM302.32 97.12 a3 3 0 1 0 6 0 a3 3 0 1 0 -6 0zM302.32 121.12 a3 3 0 1 0 6 0 a3 3 0 1 0 -6 0zM281.54 133.12 a3 3 0 1 0 6 0 a3 3 0 1 0 -6 0zM260.75 121.12 a3 3 0 1 0 6 0 a3 3 0 1 0 -6 0zM406.25 13.12 a3 3 0 1 0 6 0 a3 3 0 1 0 -6 0zM427.03 25.12 a3 3 0 1 0 6 0 a3 3 0 1 0 -6 0zM427.03 49.12 a3 3 0 1 0 6 0 a3 3 0 1 0 -6 0zM406.25 61.12 a3 3 0 1 0 6 0 a3 3 0 1 0 -6 0zM385.46 49.12 a3 3 0 1 0 6 0 a3 3 0 1 0 -6 0zM385.46 25.12 a3 3 0 1 0 6 0 a3 3 0 1 0 -6 0zM427.03 -22.88 a3 3 0 1 0 6 0 a3 3 0 1 0 -6 0zM447.82 -10.88 a3 3 0 1 0 6 0 a3 3 0 1 0 -6 0zM447.82 13.12 a3 3 0 1 0 6 0 a3 3 0 1 0 -6 0zM406.25 -10.88 a3 3 0 1 0 6 0 a3 3 0 1 0 -6 0zM489.39 13.12 a3 3 0 1 0 6 0 a3 3 0 1 0 -6 0zM510.17 25.12 a3 3 0 1 0 6 0 a3 3 0 1 0 -6 0zM510.17 49.12 a3 3 0 1 0 6 0 a3 3 0 1 0 -6 0zM489.39 61.12 a3 3 0 1 0 6 0 a3 3 0 1 0 -6 0zM468.6 49.12 a3 3 0 1 0 6 0 a3 3 0 1 0 -6 0zM468.6 25.12 a3 3 0 1 0 6 0 a3 3 0 1 0 -6 0zM489.39 85.12 a3 3 0 1 0 6 0 a3 3 0 1 0 -6 0zM468.6 97.12 a3 3 0 1 0 6 0 a3 3 0 1 0 -6 0zM447.82 85.12 a3 3 0 1 0 6 0 a3 3 0 1 0 -6 0zM447.82 61.12 a3 3 0 1 0 6 0 a3 3 0 1 0 -6 0zM510.17 97.12 a3 3 0 1 0 6 0 a3 3 0 1 0 -6 0zM510.17 121.12 a3 3 0 1 0 6 0 a3 3 0 1 0 -6 0zM489.39 133.12 a3 3 0 1 0 6 0 a3 3 0 1 0 -6 0zM468.6 121.12 a3 3 0 1 0 6 0 a3 3 0 1 0 -6 0zM551.75 -22.88 a3 3 0 1 0 6 0 a3 3 0 1 0 -6 0zM572.53 -10.88 a3 3 0 1 0 6 0 a3 3 0 1 0 -6 0zM572.53 13.12 a3 3 0 1 0 6 0 a3 3 0 1 0 -6 0zM551.75 25.12 a3 3 0 1 0 6 0 a3 3 0 1 0 -6 0zM530.96 13.12 a3 3 0 1 0 6 0 a3 3 0 1 0 -6 0zM530.96 -10.88 a3 3 0 1 0 6 0 a3 3 0 1 0 -6 0zM593.32 25.12 a3 3 0 1 0 6 0 a3 3 0 1 0 -6 0zM593.32 49.12 a3 3 0 1 0 6 0 a3 3 0 1 0 -6 0zM572.53 61.12 a3 3 0 1 0 6 0 a3 3 0 1 0 -6 0zM551.75 49.12 a3 3 0 1 0 6 0 a3 3 0 1 0 -6 0zM655.67 85.12 a3 3 0 1 0 6 0 a3 3 0 1 0 -6 0zM676.46 97.12 a3 3 0 1 0 6 0 a3 3 0 1 0 -6 0zM676.46 121.12 a3 3 0 1 0 6 0 a3 3 0 1 0 -6 0zM655.67 133.12 a3 3 0 1 0 6 0 a3 3 0 1 0 -6 0zM634.89 121.12 a3 3 0 1 0 6 0 a3 3 0 1 0 -6 0zM634.89 97.12 a3 3 0 1 0 6 0 a3 3 0 1 0 -6 0zM676.46 -22.88 a3 3 0 1 0 6 0 a3 3 0 1 0 -6 0zM697.24 -10.88 a3 3 0 1 0 6 0 a3 3 0 1 0 -6 0zM697.24 13.12 a3 3 0 1 0 6 0 a3 3 0 1 0 -6 0zM676.46 25.12 a3 3 0 1 0 6 0 a3 3 0 1 0 -6 0zM655.67 13.12 a3 3 0 1 0 6 0 a3 3 0 1 0 -6 0zM655.67 -10.88 a3 3 0 1 0 6 0 a3 3 0 1 0 -6 0zM738.81 85.12 a3 3 0 1 0 6 0 a3 3 0 1 0 -6 0zM759.6 97.12 a3 3 0 1 0 6 0 a3 3 0 1 0 -6 0zM759.6 121.12 a3 3 0 1 0 6 0 a3 3 0 1 0 -6 0zM738.81 133.12 a3 3 0 1 0 6 0 a3 3 0 1 0 -6 0zM718.03 121.12 a3 3 0 1 0 6 0 a3 3 0 1 0 -6 0zM718.03 97.12 a3 3 0 1 0 6 0 a3 3 0 1 0 -6 0zM759.6 -22.88 a3 3 0 1 0 6 0 a3 3 0 1 0 -6 0zM780.38 -10.88 a3 3 0 1 0 6 0 a3 3 0 1 0 -6 0zM780.38 13.12 a3 3 0 1 0 6 0 a3 3 0 1 0 -6 0zM759.6 25.12 a3 3 0 1 0 6 0 a3 3 0 1 0 -6 0zM738.81 13.12 a3 3 0 1 0 6 0 a3 3 0 1 0 -6 0zM738.81 -10.88 a3 3 0 1 0 6 0 a3 3 0 1 0 -6 0zM780.38 85.12 a3 3 0 1 0 6 0 a3 3 0 1 0 -6 0zM801.17 97.12 a3 3 0 1 0 6 0 a3 3 0 1 0 -6 0zM801.17 121.12 a3 3 0 1 0 6 0 a3 3 0 1 0 -6 0zM780.38 133.12 a3 3 0 1 0 6 0 a3 3 0 1 0 -6 0zM821.95 85.12 a3 3 0 1 0 6 0 a3 3 0 1 0 -6 0zM842.74 97.12 a3 3 0 1 0 6 0 a3 3 0 1 0 -6 0zM842.74 121.12 a3 3 0 1 0 6 0 a3 3 0 1 0 -6 0zM821.95 133.12 a3 3 0 1 0 6 0 a3 3 0 1 0 -6 0zM988.23 13.12 a3 3 0 1 0 6 0 a3 3 0 1 0 -6 0zM1009.02 25.12 a3 3 0 1 0 6 0 a3 3 0 1 0 -6 0zM1009.02 49.12 a3 3 0 1 0 6 0 a3 3 0 1 0 -6 0zM988.23 61.12 a3 3 0 1 0 6 0 a3 3 0 1 0 -6 0zM967.45 49.12 a3 3 0 1 0 6 0 a3 3 0 1 0 -6 0zM967.45 25.12 a3 3 0 1 0 6 0 a3 3 0 1 0 -6 0zM988.23 85.12 a3 3 0 1 0 6 0 a3 3 0 1 0 -6 0zM1009.02 97.12 a3 3 0 1 0 6 0 a3 3 0 1 0 -6 0zM1009.02 121.12 a3 3 0 1 0 6 0 a3 3 0 1 0 -6 0zM988.23 133.12 a3 3 0 1 0 6 0 a3 3 0 1 0 -6 0zM967.45 121.12 a3 3 0 1 0 6 0 a3 3 0 1 0 -6 0zM967.45 97.12 a3 3 0 1 0 6 0 a3 3 0 1 0 -6 0zM1009.02 -22.88 a3 3 0 1 0 6 0 a3 3 0 1 0 -6 0zM1029.8 -10.88 a3 3 0 1 0 6 0 a3 3 0 1 0 -6 0zM1029.8 13.12 a3 3 0 1 0 6 0 a3 3 0 1 0 -6 0zM988.23 -10.88 a3 3 0 1 0 6 0 a3 3 0 1 0 -6 0zM1050.59 49.12 a3 3 0 1 0 6 0 a3 3 0 1 0 -6 0zM1071.38 61.12 a3 3 0 1 0 6 0 a3 3 0 1 0 -6 0zM1071.38 85.12 a3 3 0 1 0 6 0 a3 3 0 1 0 -6 0zM1050.59 97.12 a3 3 0 1 0 6 0 a3 3 0 1 0 -6 0zM1029.8 85.12 a3 3 0 1 0 6 0 a3 3 0 1 0 -6 0zM1029.8 61.12 a3 3 0 1 0 6 0 a3 3 0 1 0 -6 0zM1092.16 -22.88 a3 3 0 1 0 6 0 a3 3 0 1 0 -6 0zM1112.95 -10.88 a3 3 0 1 0 6 0 a3 3 0 1 0 -6 0zM1112.95 13.12 a3 3 0 1 0 6 0 a3 3 0 1 0 -6 0zM1092.16 25.12 a3 3 0 1 0 6 0 a3 3 0 1 0 -6 0zM1071.38 13.12 a3 3 0 1 0 6 0 a3 3 0 1 0 -6 0zM1071.38 -10.88 a3 3 0 1 0 6 0 a3 3 0 1 0 -6 0zM1092.16 49.12 a3 3 0 1 0 6 0 a3 3 0 1 0 -6 0zM1112.95 61.12 a3 3 0 1 0 6 0 a3 3 0 1 0 -6 0zM1112.95 85.12 a3 3 0 1 0 6 0 a3 3 0 1 0 -6 0zM1092.16 97.12 a3 3 0 1 0 6 0 a3 3 0 1 0 -6 0zM1133.73 -22.88 a3 3 0 1 0 6 0 a3 3 0 1 0 -6 0zM1154.52 -10.88 a3 3 0 1 0 6 0 a3 3 0 1 0 -6 0zM1154.52 13.12 a3 3 0 1 0 6 0 a3 3 0 1 0 -6 0zM1133.73 25.12 a3 3 0 1 0 6 0 a3 3 0 1 0 -6 0zM1154.52 85.12 a3 3 0 1 0 6 0 a3 3 0 1 0 -6 0zM1175.3 97.12 a3 3 0 1 0 6 0 a3 3 0 1 0 -6 0zM1175.3 121.12 a3 3 0 1 0 6 0 a3 3 0 1 0 -6 0zM1154.52 133.12 a3 3 0 1 0 6 0 a3 3 0 1 0 -6 0zM1133.73 121.12 a3 3 0 1 0 6 0 a3 3 0 1 0 -6 0zM1133.73 97.12 a3 3 0 1 0 6 0 a3 3 0 1 0 -6 0zM1175.3 -22.88 a3 3 0 1 0 6 0 a3 3 0 1 0 -6 0zM1196.09 -10.88 a3 3 0 1 0 6 0 a3 3 0 1 0 -6 0zM1196.09 13.12 a3 3 0 1 0 6 0 a3 3 0 1 0 -6 0zM1175.3 25.12 a3 3 0 1 0 6 0 a3 3 0 1 0 -6 0z" fill="#80FF99"></path>
    </g>
</svg>