<svg xmlns="http://www.w3.org/2000/svg" preserveAspectRatio="none" viewBox="0 0 1200 120"><g fill="none"><path d="M0 0h1200v120H0z"/><path d="m2.67-5.17 38.97 22.5v45L2.67 84.83l-38.97-22.5v-45zm0 135 38.97 22.5v45l-38.97 22.5-38.97-22.5v-45zm77.94-135 38.98 22.5v45l-38.98 22.5-38.97-22.5v-45zm0 135 38.98 22.5v45l-38.98 22.5-38.97-22.5v-45zm77.95-135 38.97 22.5v45l-38.97 22.5-38.97-22.5v-45zm38.97 67.5 38.97 22.5v45l-38.97 22.5-38.97-22.5v-45zm38.97-67.5 38.98 22.5v45l-38.98 22.5-38.97-22.5v-45zm38.98 67.5 38.97 22.5v45l-38.97 22.5-38.98-22.5v-45zm-38.98 67.5 38.98 22.5v45l-38.98 22.5-38.97-22.5v-45zm116.92-67.5 38.97 22.5v45l-38.97 22.5-38.97-22.5v-45zm-38.97 67.5 38.97 22.5v45l-38.97 22.5-38.97-22.5v-45zm77.94-135 38.97 22.5v45l-38.97 22.5-38.97-22.5v-45zm38.97 67.5 38.98 22.5v45l-38.98 22.5-38.97-22.5v-45zm77.95 0 38.97 22.5v45l-38.97 22.5-38.97-22.5v-45zm116.92-67.5 38.97 22.5v45l-38.97 22.5-38.98-22.5v-45zm0 135 38.97 22.5v45l-38.97 22.5-38.98-22.5v-45zm77.94 0 38.97 22.5v45l-38.97 22.5-38.97-22.5v-45zm77.95 0 38.97 22.5v45l-38.97 22.5-38.98-22.5v-45zm77.94-135 38.97 22.5v45l-38.97 22.5-38.97-22.5v-45zm77.94 135 38.98 22.5v45L938 219.83l-38.97-22.5v-45zm77.95-135 38.97 22.5v45l-38.97 22.5-38.97-22.5v-45zm0 135 38.97 22.5v45l-38.97 22.5-38.97-22.5v-45zm116.92-67.5 38.97 22.5v45l-38.97 22.5-38.98-22.5v-45zm-38.98 67.5 38.98 22.5v45l-38.98 22.5-38.97-22.5v-45zm77.95-135 38.97 22.5v45l-38.97 22.5-38.97-22.5v-45zm38.97 67.5 38.97 22.5v45l-38.97 22.5-38.97-22.5v-45zm-38.97 67.5 38.97 22.5v45l-38.97 22.5-38.97-22.5v-45z" stroke="#FFEF80" stroke-width="3"/><path d="m14.33-22.88 20.79 12v24l-20.79 12-20.79-12v-24zm62.36 108 20.78 12v24l-20.78 12-20.79-12v-24zm20.78-108 20.79 12v24l-20.79 12-20.78-12v-24zm41.57 72 20.79 12v24l-20.79 12-20.78-12v-24zm62.36 36 20.78 12v24l-20.78 12-20.79-12v-24zm83.14-72 20.78 12v24l-20.78 12-20.79-12v-24zm-20.79 36 20.79 12v24l-20.79 12-20.78-12v-24zm20.79 36 20.78 12v24l-20.78 12-20.79-12v-24zm124.71-72 20.78 12v24l-20.78 12-20.79-12v-24zm20.78-36 20.79 12v24l-20.79 12-20.78-12v-24zm62.36 36 20.78 12v24l-20.78 12-20.79-12v-24zm-20.79 36 20.79 12v24l-20.79 12-20.78-12v-24zm20.79 36 20.78 12v24l-20.78 12-20.79-12v-24zm62.36-108 20.78 12v24l-20.78 12-20.79-12v-24zm20.78 36 20.79 12v24l-20.79 12-20.78-12v-24zm83.14 72 20.79 12v24l-20.79 12-20.78-12v-24zm20.79-108 20.78 12v24l-20.78 12-20.79-12v-24zm62.35 108 20.79 12v24l-20.79 12-20.78-12v-24zm20.79-108 20.78 12v24l-20.78 12-20.79-12v-24zm20.78 108 20.79 12v24l-20.79 12-20.78-12v-24zm41.57 0 20.79 12v24l-20.79 12-20.78-12v-24zm166.28-72 20.79 12v24l-20.79 12-20.78-12v-24zm0 72 20.79 12v24l-20.79 12-20.78-12v-24zm20.79-108 20.78 12v24l-20.78 12-20.79-12v-24zm41.57 72 20.79 12v24l-20.79 12-20.79-12v-24zm41.57-72 20.79 12v24l-20.79 12-20.78-12v-24zm0 72 20.79 12v24l-20.79 12-20.78-12v-24zm41.57-72 20.79 12v24l-20.79 12-20.78-12v-24zm20.79 108 20.78 12v24l-20.78 12-20.79-12v-24zm20.78-108 20.79 12v24l-20.79 12-20.78-12v-24z" stroke="#80FF99" stroke-width="2"/><path d="M11.33-22.88a3 3 0 1 0 6 0 3 3 0 1 0-6 0m20.79 12a3 3 0 1 0 6 0 3 3 0 1 0-6 0m0 24a3 3 0 1 0 6 0 3 3 0 1 0-6 0m-20.79 12a3 3 0 1 0 6 0 3 3 0 1 0-6 0m-20.79-12a3 3 0 1 0 6 0 3 3 0 1 0-6 0m0-24a3 3 0 1 0 6 0 3 3 0 1 0-6 0m83.15 96a3 3 0 1 0 6 0 3 3 0 1 0-6 0m20.78 12a3 3 0 1 0 6 0 3 3 0 1 0-6 0m0 24a3 3 0 1 0 6 0 3 3 0 1 0-6 0m-20.78 12a3 3 0 1 0 6 0 3 3 0 1 0-6 0m-20.79-12a3 3 0 1 0 6 0 3 3 0 1 0-6 0m0-24a3 3 0 1 0 6 0 3 3 0 1 0-6 0m41.57-120a3 3 0 1 0 6 0 3 3 0 1 0-6 0m20.79 12a3 3 0 1 0 6 0 3 3 0 1 0-6 0m0 24a3 3 0 1 0 6 0 3 3 0 1 0-6 0m-20.79 12a3 3 0 1 0 6 0 3 3 0 1 0-6 0m-20.78-12a3 3 0 1 0 6 0 3 3 0 1 0-6 0m0-24a3 3 0 1 0 6 0 3 3 0 1 0-6 0m62.35 60a3 3 0 1 0 6 0 3 3 0 1 0-6 0m20.79 12a3 3 0 1 0 6 0 3 3 0 1 0-6 0m0 24a3 3 0 1 0 6 0 3 3 0 1 0-6 0m-20.79 12a3 3 0 1 0 6 0 3 3 0 1 0-6 0m-20.78-12a3 3 0 1 0 6 0 3 3 0 1 0-6 0m0-24a3 3 0 1 0 6 0 3 3 0 1 0-6 0m83.14 24a3 3 0 1 0 6 0 3 3 0 1 0-6 0m20.78 12a3 3 0 1 0 6 0 3 3 0 1 0-6 0m0 24a3 3 0 1 0 6 0 3 3 0 1 0-6 0m-20.78 12a3 3 0 1 0 6 0 3 3 0 1 0-6 0m-20.79-12a3 3 0 1 0 6 0 3 3 0 1 0-6 0m0-24a3 3 0 1 0 6 0 3 3 0 1 0-6 0m103.93-84a3 3 0 1 0 6 0 3 3 0 1 0-6 0m20.78 12a3 3 0 1 0 6 0 3 3 0 1 0-6 0m0 24a3 3 0 1 0 6 0 3 3 0 1 0-6 0m-20.78 12a3 3 0 1 0 6 0 3 3 0 1 0-6 0m-20.79-12a3 3 0 1 0 6 0 3 3 0 1 0-6 0m0-24a3 3 0 1 0 6 0 3 3 0 1 0-6 0m20.79 60a3 3 0 1 0 6 0 3 3 0 1 0-6 0m-20.79 12a3 3 0 1 0 6 0 3 3 0 1 0-6 0m-20.78-12a3 3 0 1 0 6 0 3 3 0 1 0-6 0m0-24a3 3 0 1 0 6 0 3 3 0 1 0-6 0m62.35 36a3 3 0 1 0 6 0 3 3 0 1 0-6 0m0 24a3 3 0 1 0 6 0 3 3 0 1 0-6 0m-20.78 12a3 3 0 1 0 6 0 3 3 0 1 0-6 0m-20.79-12a3 3 0 1 0 6 0 3 3 0 1 0-6 0m145.5-108a3 3 0 1 0 6 0 3 3 0 1 0-6 0m20.78 12a3 3 0 1 0 6 0 3 3 0 1 0-6 0m0 24a3 3 0 1 0 6 0 3 3 0 1 0-6 0m-20.78 12a3 3 0 1 0 6 0 3 3 0 1 0-6 0m-20.79-12a3 3 0 1 0 6 0 3 3 0 1 0-6 0m0-24a3 3 0 1 0 6 0 3 3 0 1 0-6 0m41.57-48a3 3 0 1 0 6 0 3 3 0 1 0-6 0m20.79 12a3 3 0 1 0 6 0 3 3 0 1 0-6 0m0 24a3 3 0 1 0 6 0 3 3 0 1 0-6 0m-41.57-24a3 3 0 1 0 6 0 3 3 0 1 0-6 0m83.14 24a3 3 0 1 0 6 0 3 3 0 1 0-6 0m20.78 12a3 3 0 1 0 6 0 3 3 0 1 0-6 0m0 24a3 3 0 1 0 6 0 3 3 0 1 0-6 0m-20.78 12a3 3 0 1 0 6 0 3 3 0 1 0-6 0m-20.79-12a3 3 0 1 0 6 0 3 3 0 1 0-6 0m0-24a3 3 0 1 0 6 0 3 3 0 1 0-6 0m20.79 60a3 3 0 1 0 6 0 3 3 0 1 0-6 0m-20.79 12a3 3 0 1 0 6 0 3 3 0 1 0-6 0m-20.78-12a3 3 0 1 0 6 0 3 3 0 1 0-6 0m0-24a3 3 0 1 0 6 0 3 3 0 1 0-6 0m62.35 36a3 3 0 1 0 6 0 3 3 0 1 0-6 0m0 24a3 3 0 1 0 6 0 3 3 0 1 0-6 0m-20.78 12a3 3 0 1 0 6 0 3 3 0 1 0-6 0m-20.79-12a3 3 0 1 0 6 0 3 3 0 1 0-6 0m83.15-144a3 3 0 1 0 6 0 3 3 0 1 0-6 0m20.78 12a3 3 0 1 0 6 0 3 3 0 1 0-6 0m0 24a3 3 0 1 0 6 0 3 3 0 1 0-6 0m-20.78 12a3 3 0 1 0 6 0 3 3 0 1 0-6 0m-20.79-12a3 3 0 1 0 6 0 3 3 0 1 0-6 0m0-24a3 3 0 1 0 6 0 3 3 0 1 0-6 0m62.36 36a3 3 0 1 0 6 0 3 3 0 1 0-6 0m0 24a3 3 0 1 0 6 0 3 3 0 1 0-6 0m-20.79 12a3 3 0 1 0 6 0 3 3 0 1 0-6 0m-20.78-12a3 3 0 1 0 6 0 3 3 0 1 0-6 0m103.92 36a3 3 0 1 0 6 0 3 3 0 1 0-6 0m20.79 12a3 3 0 1 0 6 0 3 3 0 1 0-6 0m0 24a3 3 0 1 0 6 0 3 3 0 1 0-6 0m-20.79 12a3 3 0 1 0 6 0 3 3 0 1 0-6 0m-20.78-12a3 3 0 1 0 6 0 3 3 0 1 0-6 0m0-24a3 3 0 1 0 6 0 3 3 0 1 0-6 0m41.57-120a3 3 0 1 0 6 0 3 3 0 1 0-6 0m20.78 12a3 3 0 1 0 6 0 3 3 0 1 0-6 0m0 24a3 3 0 1 0 6 0 3 3 0 1 0-6 0m-20.78 12a3 3 0 1 0 6 0 3 3 0 1 0-6 0m-20.79-12a3 3 0 1 0 6 0 3 3 0 1 0-6 0m0-24a3 3 0 1 0 6 0 3 3 0 1 0-6 0m83.14 96a3 3 0 1 0 6 0 3 3 0 1 0-6 0m20.79 12a3 3 0 1 0 6 0 3 3 0 1 0-6 0m0 24a3 3 0 1 0 6 0 3 3 0 1 0-6 0m-20.79 12a3 3 0 1 0 6 0 3 3 0 1 0-6 0m-20.78-12a3 3 0 1 0 6 0 3 3 0 1 0-6 0m0-24a3 3 0 1 0 6 0 3 3 0 1 0-6 0m41.57-120a3 3 0 1 0 6 0 3 3 0 1 0-6 0m20.78 12a3 3 0 1 0 6 0 3 3 0 1 0-6 0m0 24a3 3 0 1 0 6 0 3 3 0 1 0-6 0m-20.78 12a3 3 0 1 0 6 0 3 3 0 1 0-6 0m-20.79-12a3 3 0 1 0 6 0 3 3 0 1 0-6 0m0-24a3 3 0 1 0 6 0 3 3 0 1 0-6 0m41.57 96a3 3 0 1 0 6 0 3 3 0 1 0-6 0m20.79 12a3 3 0 1 0 6 0 3 3 0 1 0-6 0m0 24a3 3 0 1 0 6 0 3 3 0 1 0-6 0m-20.79 12a3 3 0 1 0 6 0 3 3 0 1 0-6 0m41.57-48a3 3 0 1 0 6 0 3 3 0 1 0-6 0m20.79 12a3 3 0 1 0 6 0 3 3 0 1 0-6 0m0 24a3 3 0 1 0 6 0 3 3 0 1 0-6 0m-20.79 12a3 3 0 1 0 6 0 3 3 0 1 0-6 0m166.28-120a3 3 0 1 0 6 0 3 3 0 1 0-6 0m20.79 12a3 3 0 1 0 6 0 3 3 0 1 0-6 0m0 24a3 3 0 1 0 6 0 3 3 0 1 0-6 0m-20.79 12a3 3 0 1 0 6 0 3 3 0 1 0-6 0m-20.78-12a3 3 0 1 0 6 0 3 3 0 1 0-6 0m0-24a3 3 0 1 0 6 0 3 3 0 1 0-6 0m20.78 60a3 3 0 1 0 6 0 3 3 0 1 0-6 0m20.79 12a3 3 0 1 0 6 0 3 3 0 1 0-6 0m0 24a3 3 0 1 0 6 0 3 3 0 1 0-6 0m-20.79 12a3 3 0 1 0 6 0 3 3 0 1 0-6 0m-20.78-12a3 3 0 1 0 6 0 3 3 0 1 0-6 0m0-24a3 3 0 1 0 6 0 3 3 0 1 0-6 0m41.57-120a3 3 0 1 0 6 0 3 3 0 1 0-6 0m20.78 12a3 3 0 1 0 6 0 3 3 0 1 0-6 0m0 24a3 3 0 1 0 6 0 3 3 0 1 0-6 0m-41.57-24a3 3 0 1 0 6 0 3 3 0 1 0-6 0m62.36 60a3 3 0 1 0 6 0 3 3 0 1 0-6 0m20.79 12a3 3 0 1 0 6 0 3 3 0 1 0-6 0m0 24a3 3 0 1 0 6 0 3 3 0 1 0-6 0m-20.79 12a3 3 0 1 0 6 0 3 3 0 1 0-6 0m-20.79-12a3 3 0 1 0 6 0 3 3 0 1 0-6 0m0-24a3 3 0 1 0 6 0 3 3 0 1 0-6 0m62.36-84a3 3 0 1 0 6 0 3 3 0 1 0-6 0m20.79 12a3 3 0 1 0 6 0 3 3 0 1 0-6 0m0 24a3 3 0 1 0 6 0 3 3 0 1 0-6 0m-20.79 12a3 3 0 1 0 6 0 3 3 0 1 0-6 0m-20.78-12a3 3 0 1 0 6 0 3 3 0 1 0-6 0m0-24a3 3 0 1 0 6 0 3 3 0 1 0-6 0m20.78 60a3 3 0 1 0 6 0 3 3 0 1 0-6 0m20.79 12a3 3 0 1 0 6 0 3 3 0 1 0-6 0m0 24a3 3 0 1 0 6 0 3 3 0 1 0-6 0m-20.79 12a3 3 0 1 0 6 0 3 3 0 1 0-6 0m41.57-120a3 3 0 1 0 6 0 3 3 0 1 0-6 0m20.79 12a3 3 0 1 0 6 0 3 3 0 1 0-6 0m0 24a3 3 0 1 0 6 0 3 3 0 1 0-6 0m-20.79 12a3 3 0 1 0 6 0 3 3 0 1 0-6 0m20.79 60a3 3 0 1 0 6 0 3 3 0 1 0-6 0m20.78 12a3 3 0 1 0 6 0 3 3 0 1 0-6 0m0 24a3 3 0 1 0 6 0 3 3 0 1 0-6 0m-20.78 12a3 3 0 1 0 6 0 3 3 0 1 0-6 0m-20.79-12a3 3 0 1 0 6 0 3 3 0 1 0-6 0m0-24a3 3 0 1 0 6 0 3 3 0 1 0-6 0m41.57-120a3 3 0 1 0 6 0 3 3 0 1 0-6 0m20.79 12a3 3 0 1 0 6 0 3 3 0 1 0-6 0m0 24a3 3 0 1 0 6 0 3 3 0 1 0-6 0m-20.79 12a3 3 0 1 0 6 0 3 3 0 1 0-6 0" fill="#80FF99"/></g></svg>