<svg viewBox="0 0 512 512">
    <defs>
        <path id="a" d="M374.5 50.9h-237L18.9 256.2l118.6 205.3h237l118.6-205.3z"/>
    </defs>
    <linearGradient id="b" gradientUnits="userSpaceOnUse" x1="18.9" y1="256.2" x2="493.1" y2="256.2">
        <stop offset="0" stop-color="#00b9ff"/>
        <stop offset="1" stop-color="#001689"/>
    </linearGradient>
    <use xlink:href="#a" overflow="visible" fill="url(#b)"/>
    <clipPath id="c">
        <use xlink:href="#a" overflow="visible"/>
    </clipPath>
    <g clip-path="url(#c)" fill="#fff" style="mix-blend-mode:overlay;">
        <path d="M200.9 446.7h-56.2L116.6 398l28-48.7H201l28 48.7zm-54.6-2.8h53l26.5-45.9-26.5-45.8h-53L119.8 398z"/>
        <path d="M119 494H62.8l-28.1-48.7 28-48.7H119l28.1 48.7zm-54.6-2.8h53l26.5-45.9-26.5-45.9h-53L38 445.3z"/>
        <path d="M200.9 541.3h-56.2l-28.1-48.7 28-48.7H201l28.1 48.7zm-54.6-2.8h53l26.4-46-26.4-45.8h-53l-26.5 45.9z"/>
        <path d="M282.8 494h-56.2l-28.1-48.7 28-48.7h56.3l28 48.7zm-54.6-2.8h53l26.4-45.9-26.4-45.9h-53l-26.5 45.9zm218.4 2.8h-56.3l-28-48.7 28-48.7h56.3l28 48.7zm-54.6-2.8h53l26.4-45.9-26.5-45.9h-53l-26.4 45.9z"/>
        <path d="M364.7 541.3h-56.3l-28-48.7 28-48.7h56.3l28 48.7zm-54.6-2.8h53l26.4-46-26.5-45.8h-53l-26.4 45.9z"/>
        <path d="M364.7 446.7h-56.3l-28-48.7 28-48.7h56.3l28 48.7zM310 444h53l26.4-45.9-26.5-45.8h-53L283.7 398zm54.7-186.6h-56.3l-28-48.6 28-48.7h56.3l28 48.7zm-54.6-2.8h53l26.4-45.8-26.5-46h-53l-26.4 46zm218.3 2.8h-56.2l-28-48.6 28-48.7h56.2l28.2 48.7zm-54.5-2.8h53l26.4-45.8-26.5-46h-53l-26.4 46z"/>
        <path d="M446.6 304.7h-56.3l-28-48.7 28-48.6h56.3l28 48.6zM392 302h53l26.4-45.9-26.5-45.8h-53L365.6 256z"/>
        <path d="M446.6 210.2h-56.3l-28-48.7 28-48.7h56.3l28 48.7zm-54.6-2.8h53l26.4-46-26.5-45.8h-53l-26.4 45.9zm54.6 191.9h-56.3l-28-48.7 28-48.7h56.3l28 48.7zm-54.6-2.8h53l26.4-45.9-26.5-45.9h-53l-26.4 45.9z"/>
        <path d="M528.4 352h-56.2l-28-48.7 28-48.7h56.2l28.2 48.7zm-54.5-2.8h53l26.4-45.9-26.5-45.9h-53l-26.4 46zM119 304.9H62.8l-28.1-48.7 28-48.7H119l28.1 48.7zM64.4 302h53l26.5-46-26.5-45.8h-53l-26.5 45.9z"/>
        <path d="M37.1 352.2h-56.2l-28.1-48.7 28-48.7h56.3l28.1 48.7zm-54.6-2.9h53L62 303.5l-26.5-46h-53l-26.5 46z"/>
        <path d="M37.1 257.6h-56.2l-28.1-48.7 28-48.7h56.3L65.2 209zm-54.6-2.8h53L62 208.9 35.5 163h-53L-44 209zM119 399.4H62.8l-28.1-48.7 28-48.6H119l28.1 48.6zm-54.6-2.8h53l26.5-45.9-26.5-45.8h-53l-26.5 45.8z"/>
        <path d="M119 210.3H62.8l-28.1-48.7 28-48.7H119l28.1 48.7zm-54.6-2.8h53l26.5-45.9-26.5-45.8h-53l-26.5 45.8zm218.4 2.8h-56.2l-28.2-48.7 28.2-48.7h56.2l28 48.7zm-54.6-2.8h53l26.4-45.9-26.4-45.8h-53l-26.5 45.8z"/>
        <path d="M200.9 257.6h-56.2l-28.1-48.7 28-48.7H201l28 48.7zm-54.6-2.8h53l26.4-45.9-26.4-45.9h-53l-26.5 46z"/>
        <path d="M200.9 163h-56.2l-28.1-48.7 28-48.6H201l28 48.6zm-54.6-2.8h53l26.4-45.9-26.4-45.8h-53l-26.5 45.8zm54.6 192h-56.2l-28.1-48.7 28-48.7H201l28 48.7zm-54.6-2.9h53l26.4-45.8-26.4-46h-53l-26.5 46zm218.4 2.9h-56.3l-28-48.7 28-48.7h56.3l28 48.7zm-54.6-2.9h53l26.4-45.8-26.5-46h-53l-26.4 46z"/>
        <path d="M282.8 399.4h-56.2l-28.2-48.7 28.2-48.6h56.2l28 48.6zm-54.6-2.8h53l26.4-45.9-26.5-45.8h-53l-26.4 45.8z"/>
        <path d="M282.8 304.9h-56.2l-28.2-48.7 28.2-48.7h56.2l28 48.7zm-54.6-2.8h53l26.4-46-26.5-45.8h-53l-26.4 45.9zM200.9 68.5h-56.2l-28.1-48.7 28-48.7H201l28 48.7zm-54.6-2.8h53l26.4-46L199.3-26h-53l-26.5 45.9z"/>
        <path d="M119 115.8H62.8L34.7 67l28-48.7H119L147 67zm-54.6-2.9h53l26.5-45.8-26.5-46h-53l-26.5 46zm218.4 2.9h-56.2L198.4 67l28.2-48.7h56.2l28 48.7zm-54.6-2.9h53l26.4-45.8-26.5-46h-53l-26.4 46zm218.4 2.9h-56.3l-28-48.7 28-48.7h56.3l28 48.7zm-54.6-2.9h53l26.4-45.8L445 21h-53l-26.4 46z"/>
        <path d="M364.7 163h-56.3l-28-48.7 28-48.6h56.3l28 48.6zm-54.6-2.8h53l26.4-45.9L363 68.5h-53l-26.4 45.8z"/>
        <path d="M364.7 68.5h-56.3l-28-48.7 28-48.7h56.3l28 48.7zM310 65.7h53l26.4-46L363-26h-53l-26.4 45.9z"/>
        <circle cx="63.7" cy="209" r="5.1"/>
        <circle cx="143.7" cy="444.9" r="5.1"/>
        <path d="M143.7 356.2a5.1 5.1 0 1 1 0-10.3 5.1 5.1 0 0 1 0 10.3m166.3-1.3a5.1 5.1 0 1 1 0-10.3 5.1 5.1 0 0 1 0 10.3"/>
        <circle cx="202.2" cy="255.7" r="5.1"/>
        <circle transform="rotate(-67.5 310 255.7)" cx="309.9" cy="255.7" r="5.1"/>
        <path d="M143.7 166.2a5.1 5.1 0 1 1 0-10.2 5.1 5.1 0 0 1 0 10.2m58.5 0a5.1 5.1 0 1 1 0-10.2 5.1 5.1 0 0 1 0 10.2m107.8 0a5.1 5.1 0 1 1 0-10.2 5.1 5.1 0 0 1 0 10.2m-166.3-94a5.1 5.1 0 1 1 0-10.3 5.1 5.1 0 0 1 0 10.3m57.3 0a5.1 5.1 0 1 1 0-10.3 5.1 5.1 0 0 1 0 10.3m109 1.3a5.1 5.1 0 1 1 0-10.3 5.1 5.1 0 0 1 0 10.3M119.4 403.6a5.1 5.1 0 1 1 0-10.3 5.1 5.1 0 0 1 0 10.3m109 0a5.1 5.1 0 1 1 0-10.3 5.1 5.1 0 0 1 0 10.3"/>
        <circle transform="rotate(-67.3 119.5 113.9)" cx="119.4" cy="113.9" r="5.1"/>
        <circle cx="228.4" cy="113.9" r="5.1"/>
        <circle transform="rotate(-67.3 119.5 209)" cx="119.4" cy="209" r="5.1"/>
        <path d="M119.4 308.7a5.1 5.1 0 1 1 0-10.2 5.1 5.1 0 0 1 0 10.2m109 0a5.1 5.1 0 1 1 0-10.2 5.1 5.1 0 0 1 0 10.2M391 403.6a5.1 5.1 0 1 1 .1-10.3 5.1 5.1 0 0 1 0 10.3M282.2 214a5.1 5.1 0 1 1 0-10.2 5.1 5.1 0 0 1 0 10.3M391 214a5.1 5.1 0 1 1 .1-10.2 5.1 5.1 0 0 1 0 10.3M364 354.9a5.1 5.1 0 1 1 0-10.3 5.1 5.1 0 0 1 0 10.3m0-94a5.1 5.1 0 1 1 0-10.3 5.1 5.1 0 0 1 0 10.3m0-187.4a5.1 5.1 0 1 1 0-10.3 5.1 5.1 0 0 1 0 10.3m82.8 235.2a5.1 5.1 0 1 1 0-10.2 5.1 5.1 0 0 1 0 10.2m-383.1-1.4a3.7 3.7 0 1 1 0-7.4 3.7 3.7 0 0 1 0 7.4"/>
        <circle cx="200.9" cy="444.9" r="3.7"/>
        <circle cx="200.9" cy="351" r="3.7"/>
        <path d="M282.2 402.2a3.7 3.7 0 1 1 0-7.5 3.7 3.7 0 0 1 0 7.5m0-284.6a3.7 3.7 0 1 1 0-7.5 3.7 3.7 0 0 1 0 7.5m108.8 0a3.7 3.7 0 1 1 .1-7.5 3.7 3.7 0 0 1 0 7.5M282.2 307.3a3.7 3.7 0 1 1 0-7.4 3.7 3.7 0 0 1 0 7.4m108.8 0a3.7 3.7 0 1 1 .1-7.4 3.7 3.7 0 0 1 0 7.4m55.7-94.6a3.7 3.7 0 1 1 0-7.5 3.7 3.7 0 0 1 0 7.5m-301.7 47.2a3.7 3.7 0 1 1 0-7.5 3.7 3.7 0 0 1 0 7.5m80.9-45.2a5.1 5.1 0 1 1 0-10.3 5.1 5.1 0 0 1 0 10.3m138.8-47.3a5.1 5.1 0 1 1 0-10.3 5.1 5.1 0 0 1 0 10.3M308 450.6a5.1 5.1 0 1 1 0-10.3 5.1 5.1 0 0 1 0 10.3m55.7 0a5.1 5.1 0 1 1 0-10.3 5.1 5.1 0 0 1 0 10.3"/>
    </g>
    <path d="M374.5 50.5 493 255.7 374.5 461h-237L19 255.7 137.5 50.5zm0-7.6h-237a8 8 0 0 0-6.6 3.8L12.5 251.9a8 8 0 0 0 0 7.6l118.4 205.2a8 8 0 0 0 6.6 3.8h237c2.7 0 5.2-1.4 6.6-3.8l118.4-205.2a8 8 0 0 0 0-7.6L381.1 46.7a8 8 0 0 0-6.6-3.8" fill="#9fe8f5"/>
</svg>
