<svg xmlns="http://www.w3.org/2000/svg" viewBox="0 0 400 400"><defs><linearGradient id="prefix__linear-gradient" x1="12.86" y1="200.39" x2="387.14" y2="200.39" gradientUnits="userSpaceOnUse"><stop offset="0" stop-color="#00b9ff"/><stop offset="1" stop-color="#001689"/></linearGradient><clipPath id="prefix__clippath"><path fill="url(#prefix__linear-gradient)" stroke-width="0" d="M293.57 38.32H106.43L12.86 200.39l93.57 162.06h187.14l93.57-162.06z"/></clipPath><style>.prefix__cls-5{stroke-width:0;fill:#fff}</style></defs><g style="isolation:isolate"><g id="prefix__Layer_1" data-name="Layer 1"><path fill="url(#prefix__linear-gradient)" d="M293.57 38.32H106.43L12.86 200.39l93.57 162.06h187.14l93.57-162.06z"/><g style="mix-blend-mode:overlay" clip-path="url(#prefix__clippath)"><path class="prefix__cls-5" d="M156.5 350.78h-44.38l-22.19-38.43 22.19-38.43h44.38l22.19 38.43zm-43.1-2.22h41.82l20.91-36.21-20.91-36.21H113.4l-20.91 36.21z"/><path class="prefix__cls-5" d="M91.85 388.1H47.47l-22.19-38.44 22.19-38.43h44.38l22.19 38.43zm-43.1-2.22h41.82l20.91-36.21-20.91-36.21H48.75l-20.91 36.21z"/><path class="prefix__cls-5" d="M156.49 425.43h-44.38L89.92 387l22.19-38.44h44.38L178.68 387zm-43.09-2.23h41.82l20.91-36.21-20.91-36.21H113.4l-20.91 36.21z"/><path class="prefix__cls-5" d="M221.14 388.1h-44.38l-22.19-38.44 22.19-38.43h44.38l22.19 38.43zm-43.1-2.22h41.82l20.91-36.21-20.91-36.21h-41.82l-20.91 36.21zm172.39 2.22h-44.38l-22.19-38.44 22.19-38.43h44.38l22.19 38.43zm-43.1-2.22h41.82l20.91-36.21-20.91-36.21h-41.82l-20.91 36.21z"/><path class="prefix__cls-5" d="M285.78 425.43H241.4L219.21 387l22.19-38.44h44.38L307.97 387zm-43.09-2.23h41.82l20.91-36.21-20.91-36.21h-41.82l-20.91 36.21z"/><path class="prefix__cls-5" d="M285.78 350.78H241.4l-22.19-38.43 22.19-38.43h44.38l22.19 38.43zm-43.09-2.22h41.82l20.91-36.21-20.91-36.21h-41.82l-20.91 36.21zm43.09-147.19H241.4l-22.19-38.43 22.19-38.43h44.38l22.19 38.43zm-43.09-2.22h41.82l20.91-36.21-20.91-36.21h-41.82l-20.91 36.21zm172.39 2.22H370.7l-22.19-38.43 22.19-38.43h44.38l22.19 38.43zm-43.1-2.22h41.82l20.91-36.21-20.91-36.21h-41.82l-20.91 36.21z"/><path class="prefix__cls-5" d="M350.43 238.69h-44.38l-22.19-38.44 22.19-38.43h44.38l22.19 38.43zm-43.1-2.22h41.82l20.91-36.21-20.91-36.21h-41.82l-20.91 36.21z"/><path class="prefix__cls-5" d="M350.43 164.05h-44.38l-22.19-38.43 22.19-38.43h44.38l22.19 38.43zm-43.1-2.23h41.82l20.91-36.21-20.91-36.21h-41.82l-20.91 36.21zm43.1 151.52h-44.38l-22.19-38.43 22.19-38.43h44.38l22.19 38.43zm-43.1-2.22h41.82l20.91-36.21-20.91-36.21h-41.82l-20.91 36.21z"/><path class="prefix__cls-5" d="M415.07 276.02h-44.38l-22.19-38.43 22.19-38.44h44.38l22.19 38.44zm-43.09-2.22h41.82l20.91-36.21-20.91-36.21h-41.82l-20.91 36.21zM91.85 238.81H47.47l-22.19-38.44 22.19-38.43h44.38l22.19 38.43zm-43.1-2.23h41.82l20.91-36.21-20.91-36.21H48.75l-20.91 36.21z"/><path class="prefix__cls-5" d="M27.2 276.13h-44.38l-22.19-38.43 22.19-38.44H27.2l22.19 38.44zm-43.1-2.22h41.82l20.91-36.21-20.91-36.21H-15.9l-20.91 36.21z"/><path class="prefix__cls-5" d="M27.2 201.48h-44.38l-22.19-38.43 22.19-38.43H27.2l22.19 38.43zm-43.1-2.22h41.82l20.91-36.21-20.91-36.21H-15.9l-20.91 36.21zM91.84 313.45H47.46l-22.19-38.43 22.19-38.43h44.38l22.19 38.43zm-43.09-2.22h41.82l20.91-36.21-20.91-36.21H48.75l-20.91 36.21z"/><path class="prefix__cls-5" d="M91.85 164.16H47.47l-22.19-38.43L47.47 87.3h44.38l22.19 38.43zm-43.1-2.22h41.82l20.91-36.21-20.91-36.21H48.75l-20.91 36.21zm172.39 2.22h-44.38l-22.19-38.43 22.19-38.43h44.38l22.19 38.43zm-43.1-2.22h41.82l20.91-36.21-20.91-36.21h-41.82l-20.91 36.21z"/><path class="prefix__cls-5" d="M156.49 201.48h-44.38l-22.19-38.43 22.19-38.43h44.38l22.19 38.43zm-43.1-2.22h41.82l20.91-36.21-20.91-36.21h-41.82l-20.91 36.21z"/><path class="prefix__cls-5" d="M156.49 126.84h-44.38L89.92 88.41l22.19-38.44h44.38l22.19 38.44zm-43.1-2.23h41.82l20.91-36.21-20.91-36.21h-41.82L92.48 88.4zm43.1 151.52h-44.38L89.92 237.7l22.19-38.44h44.38l22.19 38.44zm-43.1-2.22h41.82l20.91-36.21-20.91-36.21h-41.82L92.48 237.7zm172.39 2.22H241.4l-22.19-38.43 22.19-38.44h44.38l22.19 38.44zm-43.09-2.22h41.82l20.91-36.21-20.91-36.21h-41.82l-20.91 36.21z"/><path class="prefix__cls-5" d="M221.14 313.45h-44.38l-22.19-38.43 22.19-38.43h44.38l22.19 38.43zm-43.1-2.22h41.82l20.91-36.21-20.91-36.21h-41.82l-20.91 36.21z"/><path class="prefix__cls-5" d="M221.14 238.81h-44.38l-22.19-38.44 22.19-38.43h44.38l22.19 38.43zm-43.1-2.23h41.82l20.91-36.21-20.91-36.21h-41.82l-20.91 36.21zM156.49 52.19h-44.38L89.92 13.76l22.19-38.43h44.38l22.19 38.43zm-43.1-2.22h41.82l20.91-36.21-20.91-36.21h-41.82L92.48 13.76z"/><path class="prefix__cls-5" d="M91.84 89.51H47.46L25.27 51.07l22.19-38.43h44.38l22.19 38.43zm-43.09-2.22h41.82l20.91-36.21-20.91-36.21H48.75L27.84 51.08zm172.39 2.22h-44.38l-22.19-38.44 22.19-38.43h44.38l22.19 38.43zm-43.1-2.22h41.82l20.91-36.21-20.91-36.21h-41.82l-20.91 36.21zm172.39 2.22h-44.38l-22.19-38.44 22.19-38.43h44.38l22.19 38.43zm-43.1-2.22h41.82l20.91-36.21-20.91-36.21h-41.82l-20.91 36.21z"/><path class="prefix__cls-5" d="M285.78 126.84H241.4l-22.19-38.43 22.19-38.44h44.38l22.19 38.44zm-43.1-2.23h41.82l20.91-36.21-20.91-36.21h-41.82L221.77 88.4z"/><path class="prefix__cls-5" d="M285.78 52.19H241.4l-22.19-38.43 22.19-38.43h44.38l22.19 38.43zm-43.1-2.22h41.82l20.91-36.21-20.91-36.21h-41.82l-20.91 36.21z"/><circle class="prefix__cls-5" cx="48.23" cy="163.09" r="4.05"/><circle class="prefix__cls-5" cx="111.37" cy="349.32" r="4.05"/><path class="prefix__cls-5" d="M111.37 279.29a4.06 4.06 0 0 1 0-8.1 4.06 4.06 0 0 1 0 8.1m131.21-1a4.06 4.06 0 0 1 0-8.1 4.06 4.06 0 0 1 0 8.1"/><circle class="prefix__cls-5" cx="157.54" cy="200.02" r="4.05"/><circle class="prefix__cls-5" cx="242.58" cy="200.02" r="4.05" transform="rotate(-67.5 242.58 200.02)"/><path class="prefix__cls-5" d="M111.37 129.36a4.06 4.06 0 0 1 0-8.1 4.06 4.06 0 0 1 0 8.1m46.17 0a4.06 4.06 0 0 1 0-8.1 4.06 4.06 0 0 1 0 8.1m85.04 0a4.06 4.06 0 0 1 0-8.1 4.06 4.06 0 0 1 0 8.1M111.37 55.12a4.06 4.06 0 0 1 0-8.1 4.06 4.06 0 0 1 0 8.1m45.17 0a4.06 4.06 0 0 1 0-8.1 4.06 4.06 0 0 1 0 8.1m86.04 1a4.06 4.06 0 0 1 0-8.1 4.06 4.06 0 0 1 0 8.1M92.2 316.75a4.06 4.06 0 0 1 0-8.1 4.06 4.06 0 0 1 0 8.1m85.97 0a4.06 4.06 0 0 1 0-8.1 4.06 4.06 0 0 1 0 8.1"/><circle class="prefix__cls-5" cx="92.2" cy="88.01" r="4.05" transform="rotate(-67.34 92.21 88.01)"/><circle class="prefix__cls-5" cx="178.17" cy="88.01" r="4.05"/><circle class="prefix__cls-5" cx="92.2" cy="163.09" r="4.05" transform="rotate(-67.34 92.22 163.1)"/><path class="prefix__cls-5" d="M92.2 241.85a4.06 4.06 0 0 1 0-8.1 4.06 4.06 0 0 1 0 8.1m85.97 0a4.06 4.06 0 0 1 0-8.1 4.06 4.06 0 0 1 0 8.1m128.47 74.9a4.06 4.06 0 0 1 0-8.1 4.06 4.06 0 0 1 0 8.1m-85.97-149.61a4.06 4.06 0 0 1 0-8.1 4.06 4.06 0 0 1 0 8.1m85.97 0a4.06 4.06 0 0 1 0-8.1 4.06 4.06 0 0 1 0 8.1m-21.33 111.15a4.06 4.06 0 0 1 0-8.1 4.06 4.06 0 0 1 0 8.1m0-74.22a4.06 4.06 0 0 1 0-8.1 4.06 4.06 0 0 1 0 8.1m0-147.95a4.06 4.06 0 0 1 0-8.1 4.06 4.06 0 0 1 0 8.1m65.31 185.73a4.06 4.06 0 0 1 0-8.1 4.06 4.06 0 0 1 0 8.1m-302.39-1.11a2.94 2.94 0 1 1 .01-5.89 2.94 2.94 0 0 1-.01 5.89"/><circle class="prefix__cls-5" cx="156.54" cy="349.32" r="2.94"/><circle class="prefix__cls-5" cx="156.54" cy="275.24" r="2.94"/><path class="prefix__cls-5" d="M220.67 315.63a2.94 2.94 0 1 1 .01-5.89 2.94 2.94 0 0 1-.01 5.89m0-224.68a2.94 2.94 0 1 1 .01-5.89 2.94 2.94 0 0 1-.01 5.89m85.97 0a2.94 2.94 0 1 1 .01-5.89 2.94 2.94 0 0 1-.01 5.89m-85.97 149.79a2.94 2.94 0 1 1 .01-5.89 2.94 2.94 0 0 1-.01 5.89m85.97 0a2.94 2.94 0 1 1 .01-5.89 2.94 2.94 0 0 1-.01 5.89m43.98-74.71a2.94 2.94 0 1 1 .01-5.89 2.94 2.94 0 0 1-.01 5.89m-238.13 37.24a2.94 2.94 0 1 1 .01-5.89 2.94 2.94 0 0 1-.01 5.89m63.77-35.66a4.06 4.06 0 0 1 0-8.1 4.06 4.06 0 0 1 0 8.1m109.66-37.34a4.06 4.06 0 0 1 0-8.1 4.06 4.06 0 0 1 0 8.1m-44.87 223.57a4.06 4.06 0 0 1 0-8.1 4.06 4.06 0 0 1 0 8.1m44 0a4.06 4.06 0 0 1 0-8.1 4.06 4.06 0 0 1 0 8.1"/></g><path d="m293.53 38 93.53 162-93.53 162H106.47L12.94 200l93.53-162zm-.01-6H106.47a6 6 0 0 0-5.2 3L7.74 197a6 6 0 0 0 0 6l93.53 162a6 6 0 0 0 5.2 3h187.07a6 6 0 0 0 5.2-3l93.53-162a6 6 0 0 0 0-6L298.74 35a6 6 0 0 0-5.2-3Z" stroke-width="0" fill="#9fe8f5"/></g></g></svg>